# Blender v2.93.5 OBJ File: 'NAIAD_model_by_material.blend'
# www.blender.org
v 0.081613 0.413401 0.053775
v 0.081613 0.413401 -0.053775
v 0.081613 0.523543 0.053775
v 0.081613 0.523543 -0.053775
v -0.081613 0.413401 0.053775
v -0.081613 0.413401 -0.053775
v -0.081613 0.523543 0.053775
v -0.081613 0.523543 -0.053775
v 0.081613 0.413401 0.017925
v 0.081613 0.413401 -0.017925
v 0.081613 0.523543 -0.017925
v 0.081613 0.523543 0.017925
v -0.081613 0.523543 -0.017925
v -0.081613 0.523543 0.017925
v -0.081613 0.413401 -0.017925
v -0.081613 0.413401 0.017925
v -0.045504 0.523543 0.053775
v 0.045504 0.523543 0.053775
v 0.045504 0.523543 -0.053775
v -0.045504 0.523543 -0.053775
v 0.045504 0.413401 0.053775
v -0.045504 0.413401 0.053775
v -0.045504 0.413401 -0.053775
v 0.045504 0.413401 -0.053775
v -0.045504 0.413401 0.017925
v 0.045504 0.413401 0.017925
v -0.045504 0.413401 -0.017925
v 0.045504 0.413401 -0.017925
v 0.045504 0.523543 0.017925
v -0.045504 0.523543 0.017925
v 0.045504 0.523543 -0.017925
v -0.045504 0.523543 -0.017925
v 0.081613 0.340133 0.017925
v 0.081613 0.340133 -0.017925
v -0.081613 0.340133 -0.017925
v -0.081613 0.340133 0.017925
v 0.045504 0.340133 0.017925
v 0.045504 0.340133 -0.017925
v -0.045504 0.340133 0.017925
v -0.045504 0.340133 -0.017925
vt 0.625000 0.000000
vt 0.541667 0.250000
vt 0.541667 0.000000
vt 0.625000 0.444696
vt 0.541667 0.500000
vt 0.541667 0.444696
vt 0.625000 0.500000
vt 0.541667 0.750000
vt 0.625000 0.944696
vt 0.541667 1.000000
vt 0.541667 0.944696
vt 0.375000 0.500000
vt 0.319696 0.750000
vt 0.319696 0.500000
vt 0.875000 0.500000
vt 0.819696 0.750000
vt 0.819696 0.500000
vt 0.458333 0.944696
vt 0.375000 1.000000
vt 0.375000 0.944696
vt 0.458333 0.750000
vt 0.458333 0.750000
vt 0.458333 0.500000
vt 0.375000 0.750000
vt 0.458333 0.444696
vt 0.375000 0.444696
vt 0.458333 0.000000
vt 0.375000 0.250000
vt 0.375000 0.000000
vt 0.458333 0.250000
vt 0.458333 0.305304
vt 0.541667 0.305304
vt 0.375000 0.305304
vt 0.541667 0.944696
vt 0.541667 0.805304
vt 0.458333 0.805304
vt 0.375000 0.805304
vt 0.680304 0.500000
vt 0.625000 0.750000
vt 0.680304 0.750000
vt 0.180304 0.500000
vt 0.125000 0.750000
vt 0.125000 0.500000
vt 0.180304 0.750000
vt 0.625000 0.805304
vt 0.625000 0.250000
vt 0.625000 0.305304
vt 0.458333 1.000000
vt 0.458333 0.944696
vt 0.541667 0.750000
vt 0.458333 0.805304
vt 0.541667 0.805304
vt 0.541667 0.000000
vt 0.458333 1.000000
vt 0.625000 1.000000
vt 0.875000 0.750000
vt 0.541667 1.000000
vt 0.458333 0.000000
vn 0.5773 -0.5773 -0.5773
vn 0.7071 0.7071 0.0000
vn 0.9045 -0.3015 -0.3015
vn 0.0000 0.7071 -0.7071
vn -0.7071 0.7071 0.0000
vn 0.0000 1.0000 0.0000
vn -0.5773 0.5773 -0.5773
vn -0.9045 -0.3015 -0.3015
vn 0.0000 -0.7071 -0.7071
vn -0.3015 -0.9045 -0.3015
vn -0.5773 0.5773 0.5773
vn 0.0000 -0.7071 0.7071
vn 0.0000 0.7071 0.7071
vn 0.5773 0.5773 -0.5773
vn -0.3015 -0.9045 0.3015
vn 0.5773 -0.5773 0.5773
vn -0.5773 -0.5773 0.5773
vn -0.9045 -0.3015 0.3015
vn 0.9045 -0.3015 0.3015
vn 0.5773 0.5773 0.5773
vn -0.5773 -0.5773 -0.5773
vn 0.3015 -0.9045 -0.3015
vn 0.3015 -0.9045 0.3015
s 1
f 2/1/1 11/2/2 10/3/3
f 20/4/4 13/5/5 32/6/6
f 8/7/7 15/8/8 13/5/5
f 24/9/9 10/10/3 28/11/10
f 7/12/11 22/13/12 17/14/13
f 4/15/14 24/16/9 19/17/4
f 26/18/15 1/19/16 21/20/12
f 15/8/8 36/21/17 16/22/18
f 14/23/5 5/24/17 7/12/11
f 13/5/5 16/22/18 14/23/5
f 30/25/6 7/12/11 17/26/13
f 32/6/6 14/23/5 30/25/6
f 9/27/19 3/28/20 1/29/16
f 10/3/3 12/30/2 9/27/19
f 11/2/2 29/31/6 12/30/2
f 31/32/6 30/25/6 29/31/6
f 12/30/2 18/33/13 3/28/20
f 29/31/6 17/26/13 18/33/13
f 10/10/3 38/34/21 28/11/10
f 27/35/22 26/18/15 25/36/23
f 16/22/18 22/37/12 5/24/17
f 25/36/23 21/20/12 22/37/12
f 20/38/4 6/39/21 8/7/7
f 19/17/4 23/40/9 20/38/4
f 18/41/13 1/42/16 3/43/20
f 17/14/13 21/44/12 18/41/13
f 6/39/21 27/35/22 15/8/8
f 23/45/9 28/11/10 27/35/22
f 4/46/14 31/32/6 11/2/2
f 19/47/4 32/6/6 31/32/6
f 38/34/21 33/48/16 37/49/17
f 35/50/21 39/51/16 36/21/17
f 25/36/23 40/52/1 27/35/22
f 9/27/19 34/53/1 10/3/3
f 26/18/15 33/48/16 9/54/19
f 28/11/10 37/49/17 26/18/15
f 27/35/22 35/50/21 15/8/8
f 16/22/18 39/51/16 25/36/23
f 2/1/1 4/46/14 11/2/2
f 20/4/4 8/7/7 13/5/5
f 8/7/7 6/39/21 15/8/8
f 24/9/9 2/55/1 10/10/3
f 7/12/11 5/24/17 22/13/12
f 4/15/14 2/56/1 24/16/9
f 26/18/15 9/54/19 1/19/16
f 15/8/8 35/50/21 36/21/17
f 14/23/5 16/22/18 5/24/17
f 13/5/5 15/8/8 16/22/18
f 30/25/6 14/23/5 7/12/11
f 32/6/6 13/5/5 14/23/5
f 9/27/19 12/30/2 3/28/20
f 10/3/3 11/2/2 12/30/2
f 11/2/2 31/32/6 29/31/6
f 31/32/6 32/6/6 30/25/6
f 12/30/2 29/31/6 18/33/13
f 29/31/6 30/25/6 17/26/13
f 10/10/3 34/57/1 38/34/21
f 27/35/22 28/11/10 26/18/15
f 16/22/18 25/36/23 22/37/12
f 25/36/23 26/18/15 21/20/12
f 20/38/4 23/40/9 6/39/21
f 19/17/4 24/16/9 23/40/9
f 18/41/13 21/44/12 1/42/16
f 17/14/13 22/13/12 21/44/12
f 6/39/21 23/45/9 27/35/22
f 23/45/9 24/9/9 28/11/10
f 4/46/14 19/47/4 31/32/6
f 19/47/4 20/4/4 32/6/6
f 38/34/21 34/57/1 33/48/16
f 35/50/21 40/52/1 39/51/16
f 25/36/23 39/51/16 40/52/1
f 9/27/19 33/58/16 34/53/1
f 26/18/15 37/49/17 33/48/16
f 28/11/10 38/34/21 37/49/17
f 27/35/22 40/52/1 35/50/21
f 16/22/18 36/21/17 39/51/16
