<?xml version="1.0" encoding="UTF-8" standalone="no"?>
<!DOCTYPE svg PUBLIC "-//W3C//DTD SVG 1.1//EN"
 "http://www.w3.org/Graphics/SVG/1.1/DTD/svg11.dtd">
<!-- Generated by graphviz version 2.40.1 (20161225.0304)
 -->
<!-- Title: G Pages: 1 -->
<svg width="350pt" height="188pt"
 viewBox="0.00 0.00 350.00 188.00" xmlns="http://www.w3.org/2000/svg" xmlns:xlink="http://www.w3.org/1999/xlink">
<g id="graph0" class="graph" transform="scale(1 1) rotate(0) translate(4 184)">
<title>G</title>
<polygon fill="#ffffff" stroke="transparent" points="-4,4 -4,-184 346,-184 346,4 -4,4"/>
<!-- /safe_depth_altitude -->
<g id="node1" class="node">
<title>/safe_depth_altitude</title>
<ellipse fill="#072c43" stroke="#000000" cx="201.5" cy="-90" rx="105.0817" ry="18"/>
<text text-anchor="middle" x="201.5" y="-86.3" font-family="sans-serif" font-size="14.00" fill="#a4c4bf">/safe_depth_altitude</text>
</g>
<!-- /controller/body_velocity_req -->
<g id="node2" class="node">
<title>/controller/body_velocity_req</title>
<polygon fill="#fbd740" stroke="#000000" points="223,-36 0,-36 0,0 223,0 223,-36"/>
<text text-anchor="middle" x="111.5" y="-14.3" font-family="sans-serif" font-size="14.00" fill="#000000">/controller/body_velocity_req</text>
</g>
<!-- /safe_depth_altitude&#45;&gt;/controller/body_velocity_req -->
<g id="edge1" class="edge">
<title>/safe_depth_altitude&#45;&gt;/controller/body_velocity_req</title>
<path fill="none" stroke="#000000" d="M179.2528,-72.2022C168.0873,-63.2698 154.3856,-52.3085 142.2325,-42.586"/>
<polygon fill="#000000" stroke="#000000" points="144.1116,-39.6071 134.1164,-36.0931 139.7387,-45.0732 144.1116,-39.6071"/>
</g>
<!-- /diagnostics -->
<g id="node3" class="node">
<title>/diagnostics</title>
<polygon fill="#fbd740" stroke="#000000" points="342,-36 241,-36 241,0 342,0 342,-36"/>
<text text-anchor="middle" x="291.5" y="-14.3" font-family="sans-serif" font-size="14.00" fill="#000000">/diagnostics</text>
</g>
<!-- /safe_depth_altitude&#45;&gt;/diagnostics -->
<g id="edge2" class="edge">
<title>/safe_depth_altitude&#45;&gt;/diagnostics</title>
<path fill="none" stroke="#000000" d="M223.7472,-72.2022C234.9127,-63.2698 248.6144,-52.3085 260.7675,-42.586"/>
<polygon fill="#000000" stroke="#000000" points="263.2613,-45.0732 268.8836,-36.0931 258.8884,-39.6071 263.2613,-45.0732"/>
</g>
<!-- /navigator/navigation -->
<g id="node4" class="node">
<title>/navigator/navigation</title>
<polygon fill="#fbd740" stroke="#000000" points="286,-180 117,-180 117,-144 286,-144 286,-180"/>
<text text-anchor="middle" x="201.5" y="-158.3" font-family="sans-serif" font-size="14.00" fill="#000000">/navigator/navigation</text>
</g>
<!-- /navigator/navigation&#45;&gt;/safe_depth_altitude -->
<g id="edge3" class="edge">
<title>/navigator/navigation&#45;&gt;/safe_depth_altitude</title>
<path fill="none" stroke="#000000" d="M201.5,-143.8314C201.5,-136.131 201.5,-126.9743 201.5,-118.4166"/>
<polygon fill="#000000" stroke="#000000" points="205.0001,-118.4132 201.5,-108.4133 198.0001,-118.4133 205.0001,-118.4132"/>
</g>
</g>
</svg>
