<?xml version="1.0" encoding="UTF-8" standalone="no"?>
<!DOCTYPE svg PUBLIC "-//W3C//DTD SVG 1.1//EN"
 "http://www.w3.org/Graphics/SVG/1.1/DTD/svg11.dtd">
<!-- Generated by graphviz version 2.40.1 (20161225.0304)
 -->
<!-- Title: G Pages: 1 -->
<svg width="352pt" height="188pt"
 viewBox="0.00 0.00 351.50 188.00" xmlns="http://www.w3.org/2000/svg" xmlns:xlink="http://www.w3.org/1999/xlink">
<g id="graph0" class="graph" transform="scale(1 1) rotate(0) translate(4 184)">
<title>G</title>
<polygon fill="#ffffff" stroke="transparent" points="-4,4 -4,-184 347.5,-184 347.5,4 -4,4"/>
<!-- /safety_supervisor_checker -->
<g id="node1" class="node">
<title>/safety_supervisor_checker</title>
<ellipse fill="#072c43" stroke="#000000" cx="202" cy="-90" rx="137.2758" ry="18"/>
<text text-anchor="middle" x="202" y="-86.3" font-family="sans-serif" font-size="14.00" fill="#a4c4bf">/safety_supervisor_checker</text>
</g>
<!-- /controller/thruster_setpoints -->
<g id="node2" class="node">
<title>/controller/thruster_setpoints</title>
<polygon fill="#fbd740" stroke="#000000" points="224,-36 0,-36 0,0 224,0 224,-36"/>
<text text-anchor="middle" x="112" y="-14.3" font-family="sans-serif" font-size="14.00" fill="#000000">/controller/thruster_setpoints</text>
</g>
<!-- /safety_supervisor_checker&#45;&gt;/controller/thruster_setpoints -->
<g id="edge1" class="edge">
<title>/safety_supervisor_checker&#45;&gt;/controller/thruster_setpoints</title>
<path fill="none" stroke="#000000" d="M179.7528,-72.2022C168.5873,-63.2698 154.8856,-52.3085 142.7325,-42.586"/>
<polygon fill="#000000" stroke="#000000" points="144.6116,-39.6071 134.6164,-36.0931 140.2387,-45.0732 144.6116,-39.6071"/>
</g>
<!-- /diagnostics -->
<g id="node3" class="node">
<title>/diagnostics</title>
<polygon fill="#fbd740" stroke="#000000" points="343.5,-36 242.5,-36 242.5,0 343.5,0 343.5,-36"/>
<text text-anchor="middle" x="293" y="-14.3" font-family="sans-serif" font-size="14.00" fill="#000000">/diagnostics</text>
</g>
<!-- /safety_supervisor_checker&#45;&gt;/diagnostics -->
<g id="edge2" class="edge">
<title>/safety_supervisor_checker&#45;&gt;/diagnostics</title>
<path fill="none" stroke="#000000" d="M224.4944,-72.2022C235.8926,-63.1839 249.9046,-52.0975 262.2801,-42.3059"/>
<polygon fill="#000000" stroke="#000000" points="264.4618,-45.0428 270.1323,-36.0931 260.1184,-39.5532 264.4618,-45.0428"/>
</g>
<!-- /safety_supervisor/status -->
<g id="node4" class="node">
<title>/safety_supervisor/status</title>
<polygon fill="#fbd740" stroke="#000000" points="300,-180 104,-180 104,-144 300,-144 300,-180"/>
<text text-anchor="middle" x="202" y="-158.3" font-family="sans-serif" font-size="14.00" fill="#000000">/safety_supervisor/status</text>
</g>
<!-- /safety_supervisor/status&#45;&gt;/safety_supervisor_checker -->
<g id="edge3" class="edge">
<title>/safety_supervisor/status&#45;&gt;/safety_supervisor_checker</title>
<path fill="none" stroke="#000000" d="M202,-143.8314C202,-136.131 202,-126.9743 202,-118.4166"/>
<polygon fill="#000000" stroke="#000000" points="205.5001,-118.4132 202,-108.4133 198.5001,-118.4133 205.5001,-118.4132"/>
</g>
</g>
</svg>
