<?xml version="1.0" encoding="UTF-8" standalone="no"?>
<!DOCTYPE svg PUBLIC "-//W3C//DTD SVG 1.1//EN"
 "http://www.w3.org/Graphics/SVG/1.1/DTD/svg11.dtd">
<!-- Generated by graphviz version 2.40.1 (20161225.0304)
 -->
<!-- Title: G Pages: 1 -->
<svg width="994pt" height="188pt"
 viewBox="0.00 0.00 993.50 188.00" xmlns="http://www.w3.org/2000/svg" xmlns:xlink="http://www.w3.org/1999/xlink">
<g id="graph0" class="graph" transform="scale(1 1) rotate(0) translate(4 184)">
<title>G</title>
<polygon fill="#ffffff" stroke="transparent" points="-4,4 -4,-184 989.5,-184 989.5,4 -4,4"/>
<!-- /safety_supervisor -->
<g id="node1" class="node">
<title>/safety_supervisor</title>
<ellipse fill="#072c43" stroke="#000000" cx="525" cy="-90" rx="96.3833" ry="18"/>
<text text-anchor="middle" x="525" y="-86.3" font-family="sans-serif" font-size="14.00" fill="#a4c4bf">/safety_supervisor</text>
</g>
<!-- /controller/thruster_setpoints -->
<g id="node2" class="node">
<title>/controller/thruster_setpoints</title>
<polygon fill="#fbd740" stroke="#000000" points="348,-36 124,-36 124,0 348,0 348,-36"/>
<text text-anchor="middle" x="236" y="-14.3" font-family="sans-serif" font-size="14.00" fill="#000000">/controller/thruster_setpoints</text>
</g>
<!-- /safety_supervisor&#45;&gt;/controller/thruster_setpoints -->
<g id="edge1" class="edge">
<title>/safety_supervisor&#45;&gt;/controller/thruster_setpoints</title>
<path fill="none" stroke="#000000" d="M467.2111,-75.6028C424.5363,-64.971 365.8499,-50.3502 318.2821,-38.4993"/>
<polygon fill="#000000" stroke="#000000" points="318.8596,-35.0363 308.3101,-36.015 317.1674,-41.8287 318.8596,-35.0363"/>
</g>
<!-- /safety_supervisor/rules_recovery_actions -->
<g id="node3" class="node">
<title>/safety_supervisor/rules_recovery_actions</title>
<polygon fill="#fbd740" stroke="#000000" points="683.5,-36 366.5,-36 366.5,0 683.5,0 683.5,-36"/>
<text text-anchor="middle" x="525" y="-14.3" font-family="sans-serif" font-size="14.00" fill="#000000">/safety_supervisor/rules_recovery_actions</text>
</g>
<!-- /safety_supervisor&#45;&gt;/safety_supervisor/rules_recovery_actions -->
<g id="edge2" class="edge">
<title>/safety_supervisor&#45;&gt;/safety_supervisor/rules_recovery_actions</title>
<path fill="none" stroke="#000000" d="M525,-71.8314C525,-64.131 525,-54.9743 525,-46.4166"/>
<polygon fill="#000000" stroke="#000000" points="528.5001,-46.4132 525,-36.4133 521.5001,-46.4133 528.5001,-46.4132"/>
</g>
<!-- /safety_supervisor/status -->
<g id="node4" class="node">
<title>/safety_supervisor/status</title>
<polygon fill="#fbd740" stroke="#000000" points="898,-36 702,-36 702,0 898,0 898,-36"/>
<text text-anchor="middle" x="800" y="-14.3" font-family="sans-serif" font-size="14.00" fill="#000000">/safety_supervisor/status</text>
</g>
<!-- /safety_supervisor&#45;&gt;/safety_supervisor/status -->
<g id="edge3" class="edge">
<title>/safety_supervisor&#45;&gt;/safety_supervisor/status</title>
<path fill="none" stroke="#000000" d="M580.9818,-75.3429C621.4358,-64.7513 676.6237,-50.3021 721.4794,-38.5581"/>
<polygon fill="#000000" stroke="#000000" points="722.3891,-41.938 731.1765,-36.0192 720.6161,-35.1662 722.3891,-41.938"/>
</g>
<!-- /captain/captain_status -->
<g id="node5" class="node">
<title>/captain/captain_status</title>
<polygon fill="#fbd740" stroke="#000000" points="182,-180 0,-180 0,-144 182,-144 182,-180"/>
<text text-anchor="middle" x="91" y="-158.3" font-family="sans-serif" font-size="14.00" fill="#000000">/captain/captain_status</text>
</g>
<!-- /captain/captain_status&#45;&gt;/safety_supervisor -->
<g id="edge4" class="edge">
<title>/captain/captain_status&#45;&gt;/safety_supervisor</title>
<path fill="none" stroke="#000000" d="M182.0063,-145.5479C185.0396,-145.0222 188.044,-144.505 191,-144 275.9504,-129.4884 373.2347,-113.8734 440.8121,-103.1864"/>
<polygon fill="#000000" stroke="#000000" points="441.6475,-106.5979 450.9788,-101.5803 440.5551,-99.6837 441.6475,-106.5979"/>
</g>
<!-- /captain/state_feedback -->
<g id="node6" class="node">
<title>/captain/state_feedback</title>
<polygon fill="#fbd740" stroke="#000000" points="388,-180 200,-180 200,-144 388,-144 388,-180"/>
<text text-anchor="middle" x="294" y="-158.3" font-family="sans-serif" font-size="14.00" fill="#000000">/captain/state_feedback</text>
</g>
<!-- /captain/state_feedback&#45;&gt;/safety_supervisor -->
<g id="edge5" class="edge">
<title>/captain/state_feedback&#45;&gt;/safety_supervisor</title>
<path fill="none" stroke="#000000" d="M351.9929,-143.9243C386.6865,-133.1107 430.6741,-119.4003 465.6126,-108.5103"/>
<polygon fill="#000000" stroke="#000000" points="466.7064,-111.8356 475.2119,-105.5184 464.6234,-105.1527 466.7064,-111.8356"/>
</g>
<!-- /controller/world_waypoint_req -->
<g id="node7" class="node">
<title>/controller/world_waypoint_req</title>
<polygon fill="#fbd740" stroke="#000000" points="644,-180 406,-180 406,-144 644,-144 644,-180"/>
<text text-anchor="middle" x="525" y="-158.3" font-family="sans-serif" font-size="14.00" fill="#000000">/controller/world_waypoint_req</text>
</g>
<!-- /controller/world_waypoint_req&#45;&gt;/safety_supervisor -->
<g id="edge6" class="edge">
<title>/controller/world_waypoint_req&#45;&gt;/safety_supervisor</title>
<path fill="none" stroke="#000000" d="M525,-143.8314C525,-136.131 525,-126.9743 525,-118.4166"/>
<polygon fill="#000000" stroke="#000000" points="528.5001,-118.4132 525,-108.4133 521.5001,-118.4133 528.5001,-118.4132"/>
</g>
<!-- /diagnostics_agg -->
<g id="node8" class="node">
<title>/diagnostics_agg</title>
<polygon fill="#fbd740" stroke="#000000" points="798,-180 662,-180 662,-144 798,-144 798,-180"/>
<text text-anchor="middle" x="730" y="-158.3" font-family="sans-serif" font-size="14.00" fill="#000000">/diagnostics_agg</text>
</g>
<!-- /diagnostics_agg&#45;&gt;/safety_supervisor -->
<g id="edge7" class="edge">
<title>/diagnostics_agg&#45;&gt;/safety_supervisor</title>
<path fill="none" stroke="#000000" d="M678.5345,-143.9243C648.5686,-133.3997 610.7897,-120.131 580.2058,-109.3894"/>
<polygon fill="#000000" stroke="#000000" points="581.1427,-106.0089 570.5478,-105.9973 578.823,-112.6134 581.1427,-106.0089"/>
</g>
<!-- /navigator/navigation -->
<g id="node9" class="node">
<title>/navigator/navigation</title>
<polygon fill="#fbd740" stroke="#000000" points="985.5,-180 816.5,-180 816.5,-144 985.5,-144 985.5,-180"/>
<text text-anchor="middle" x="901" y="-158.3" font-family="sans-serif" font-size="14.00" fill="#000000">/navigator/navigation</text>
</g>
<!-- /navigator/navigation&#45;&gt;/safety_supervisor -->
<g id="edge8" class="edge">
<title>/navigator/navigation&#45;&gt;/safety_supervisor</title>
<path fill="none" stroke="#000000" d="M816.1494,-145.752C752.0325,-133.4743 664.732,-116.7572 602.4884,-104.8382"/>
<polygon fill="#000000" stroke="#000000" points="602.8142,-101.3371 592.3344,-102.8938 601.4977,-108.2122 602.8142,-101.3371"/>
</g>
</g>
</svg>
