<?xml version="1.0" encoding="UTF-8" standalone="no"?>
<!DOCTYPE svg PUBLIC "-//W3C//DTD SVG 1.1//EN"
 "http://www.w3.org/Graphics/SVG/1.1/DTD/svg11.dtd">
<!-- Generated by graphviz version 2.40.1 (20161225.0304)
 -->
<!-- Title: G Pages: 1 -->
<svg width="334pt" height="188pt"
 viewBox="0.00 0.00 333.50 188.00" xmlns="http://www.w3.org/2000/svg" xmlns:xlink="http://www.w3.org/1999/xlink">
<g id="graph0" class="graph" transform="scale(1 1) rotate(0) translate(4 184)">
<title>G</title>
<polygon fill="#ffffff" stroke="transparent" points="-4,4 -4,-184 329.5,-184 329.5,4 -4,4"/>
<!-- /virtual_cage -->
<g id="node1" class="node">
<title>/virtual_cage</title>
<ellipse fill="#072c43" stroke="#000000" cx="136.5" cy="-90" rx="70.3881" ry="18"/>
<text text-anchor="middle" x="136.5" y="-86.3" font-family="sans-serif" font-size="14.00" fill="#a4c4bf">/virtual_cage</text>
</g>
<!-- /diagnostics -->
<g id="node2" class="node">
<title>/diagnostics</title>
<polygon fill="#fbd740" stroke="#000000" points="101,-36 0,-36 0,0 101,0 101,-36"/>
<text text-anchor="middle" x="50.5" y="-14.3" font-family="sans-serif" font-size="14.00" fill="#000000">/diagnostics</text>
</g>
<!-- /virtual_cage&#45;&gt;/diagnostics -->
<g id="edge1" class="edge">
<title>/virtual_cage&#45;&gt;/diagnostics</title>
<path fill="none" stroke="#000000" d="M115.6818,-72.5708C104.938,-63.576 91.6502,-52.4513 79.8804,-42.5976"/>
<polygon fill="#000000" stroke="#000000" points="81.939,-39.7563 72.0246,-36.0206 77.4454,-45.1237 81.939,-39.7563"/>
</g>
<!-- /virtual_cage/cage_marker -->
<g id="node3" class="node">
<title>/virtual_cage/cage_marker</title>
<polygon fill="#fbd740" stroke="#000000" points="325.5,-36 119.5,-36 119.5,0 325.5,0 325.5,-36"/>
<text text-anchor="middle" x="222.5" y="-14.3" font-family="sans-serif" font-size="14.00" fill="#000000">/virtual_cage/cage_marker</text>
</g>
<!-- /virtual_cage&#45;&gt;/virtual_cage/cage_marker -->
<g id="edge2" class="edge">
<title>/virtual_cage&#45;&gt;/virtual_cage/cage_marker</title>
<path fill="none" stroke="#000000" d="M157.3182,-72.5708C168.062,-63.576 181.3498,-52.4513 193.1196,-42.5976"/>
<polygon fill="#000000" stroke="#000000" points="195.5546,-45.1237 200.9754,-36.0206 191.061,-39.7563 195.5546,-45.1237"/>
</g>
<!-- /navigator/navigation -->
<g id="node4" class="node">
<title>/navigator/navigation</title>
<polygon fill="#fbd740" stroke="#000000" points="221,-180 52,-180 52,-144 221,-144 221,-180"/>
<text text-anchor="middle" x="136.5" y="-158.3" font-family="sans-serif" font-size="14.00" fill="#000000">/navigator/navigation</text>
</g>
<!-- /navigator/navigation&#45;&gt;/virtual_cage -->
<g id="edge3" class="edge">
<title>/navigator/navigation&#45;&gt;/virtual_cage</title>
<path fill="none" stroke="#000000" d="M136.5,-143.8314C136.5,-136.131 136.5,-126.9743 136.5,-118.4166"/>
<polygon fill="#000000" stroke="#000000" points="140.0001,-118.4132 136.5,-108.4133 133.0001,-118.4133 140.0001,-118.4132"/>
</g>
</g>
</svg>
