<?xml version="1.0" encoding="UTF-8" standalone="no"?>
<!DOCTYPE svg PUBLIC "-//W3C//DTD SVG 1.1//EN"
 "http://www.w3.org/Graphics/SVG/1.1/DTD/svg11.dtd">
<!-- Generated by graphviz version 2.40.1 (20161225.0304)
 -->
<!-- Title: G Pages: 1 -->
<svg width="364pt" height="116pt"
 viewBox="0.00 0.00 364.00 116.00" xmlns="http://www.w3.org/2000/svg" xmlns:xlink="http://www.w3.org/1999/xlink">
<g id="graph0" class="graph" transform="scale(1 1) rotate(0) translate(4 112)">
<title>G</title>
<polygon fill="#ffffff" stroke="transparent" points="-4,4 -4,-112 360,-112 360,4 -4,4"/>
<!-- /watchdog_timer -->
<g id="node1" class="node">
<title>/watchdog_timer</title>
<ellipse fill="#072c43" stroke="#000000" cx="143.5" cy="-90" rx="89.0842" ry="18"/>
<text text-anchor="middle" x="143.5" y="-86.3" font-family="sans-serif" font-size="14.00" fill="#a4c4bf">/watchdog_timer</text>
</g>
<!-- /diagnostics -->
<g id="node2" class="node">
<title>/diagnostics</title>
<polygon fill="#fbd740" stroke="#000000" points="101,-36 0,-36 0,0 101,0 101,-36"/>
<text text-anchor="middle" x="50.5" y="-14.3" font-family="sans-serif" font-size="14.00" fill="#000000">/diagnostics</text>
</g>
<!-- /watchdog_timer&#45;&gt;/diagnostics -->
<g id="edge1" class="edge">
<title>/watchdog_timer&#45;&gt;/diagnostics</title>
<path fill="none" stroke="#000000" d="M120.9873,-72.5708C109.2573,-63.4896 94.723,-52.2372 81.9052,-42.3137"/>
<polygon fill="#000000" stroke="#000000" points="83.8265,-39.3748 73.7766,-36.0206 79.5412,-44.9099 83.8265,-39.3748"/>
</g>
<!-- /watchdog_timer/elapsed_time -->
<g id="node3" class="node">
<title>/watchdog_timer/elapsed_time</title>
<polygon fill="#fbd740" stroke="#000000" points="356,-36 119,-36 119,0 356,0 356,-36"/>
<text text-anchor="middle" x="237.5" y="-14.3" font-family="sans-serif" font-size="14.00" fill="#000000">/watchdog_timer/elapsed_time</text>
</g>
<!-- /watchdog_timer&#45;&gt;/watchdog_timer/elapsed_time -->
<g id="edge2" class="edge">
<title>/watchdog_timer&#45;&gt;/watchdog_timer/elapsed_time</title>
<path fill="none" stroke="#000000" d="M166.2548,-72.5708C178.1109,-63.4896 192.8014,-52.2372 205.7571,-42.3137"/>
<polygon fill="#000000" stroke="#000000" points="208.1626,-44.88 213.9731,-36.0206 203.906,-39.3228 208.1626,-44.88"/>
</g>
</g>
</svg>
