<?xml version="1.0" encoding="UTF-8" standalone="no"?>
<!DOCTYPE svg PUBLIC "-//W3C//DTD SVG 1.1//EN"
 "http://www.w3.org/Graphics/SVG/1.1/DTD/svg11.dtd">
<!-- Generated by graphviz version 2.40.1 (20161225.0304)
 -->
<!-- Title: G Pages: 1 -->
<svg width="721pt" height="188pt"
 viewBox="0.00 0.00 720.50 188.00" xmlns="http://www.w3.org/2000/svg" xmlns:xlink="http://www.w3.org/1999/xlink">
<g id="graph0" class="graph" transform="scale(1 1) rotate(0) translate(4 184)">
<title>G</title>
<polygon fill="#ffffff" stroke="transparent" points="-4,4 -4,-184 716.5,-184 716.5,4 -4,4"/>
<!-- /captain -->
<g id="node1" class="node">
<title>/captain</title>
<ellipse fill="#072c43" stroke="#000000" cx="397" cy="-90" rx="48.1917" ry="18"/>
<text text-anchor="middle" x="397" y="-86.3" font-family="sans-serif" font-size="14.00" fill="#a4c4bf">/captain</text>
</g>
<!-- /captain/captain_status -->
<g id="node2" class="node">
<title>/captain/captain_status</title>
<polygon fill="#fbd740" stroke="#000000" points="182,-36 0,-36 0,0 182,0 182,-36"/>
<text text-anchor="middle" x="91" y="-14.3" font-family="sans-serif" font-size="14.00" fill="#000000">/captain/captain_status</text>
</g>
<!-- /captain&#45;&gt;/captain/captain_status -->
<g id="edge1" class="edge">
<title>/captain&#45;&gt;/captain/captain_status</title>
<path fill="none" stroke="#000000" d="M356.049,-80.3645C310.6338,-69.6785 236.0618,-52.1322 177.567,-38.3687"/>
<polygon fill="#000000" stroke="#000000" points="178.121,-34.9036 167.5852,-36.02 176.5177,-41.7175 178.121,-34.9036"/>
</g>
<!-- /captain/state_feedback -->
<g id="node3" class="node">
<title>/captain/state_feedback</title>
<polygon fill="#fbd740" stroke="#000000" points="388,-36 200,-36 200,0 388,0 388,-36"/>
<text text-anchor="middle" x="294" y="-14.3" font-family="sans-serif" font-size="14.00" fill="#000000">/captain/state_feedback</text>
</g>
<!-- /captain&#45;&gt;/captain/state_feedback -->
<g id="edge2" class="edge">
<title>/captain&#45;&gt;/captain/state_feedback</title>
<path fill="none" stroke="#000000" d="M374.141,-74.0209C360.7642,-64.6702 343.6075,-52.6771 328.6029,-42.1884"/>
<polygon fill="#000000" stroke="#000000" points="330.2633,-39.0788 320.062,-36.2181 326.2528,-44.816 330.2633,-39.0788"/>
</g>
<!-- /captain/trajectory_path -->
<g id="node4" class="node">
<title>/captain/trajectory_path</title>
<polygon fill="#fbd740" stroke="#000000" points="593.5,-36 406.5,-36 406.5,0 593.5,0 593.5,-36"/>
<text text-anchor="middle" x="500" y="-14.3" font-family="sans-serif" font-size="14.00" fill="#000000">/captain/trajectory_path</text>
</g>
<!-- /captain&#45;&gt;/captain/trajectory_path -->
<g id="edge3" class="edge">
<title>/captain&#45;&gt;/captain/trajectory_path</title>
<path fill="none" stroke="#000000" d="M419.859,-74.0209C433.2358,-64.6702 450.3925,-52.6771 465.3971,-42.1884"/>
<polygon fill="#000000" stroke="#000000" points="467.7472,-44.816 473.938,-36.2181 463.7367,-39.0788 467.7472,-44.816"/>
</g>
<!-- /diagnostics -->
<g id="node5" class="node">
<title>/diagnostics</title>
<polygon fill="#fbd740" stroke="#000000" points="712.5,-36 611.5,-36 611.5,0 712.5,0 712.5,-36"/>
<text text-anchor="middle" x="662" y="-14.3" font-family="sans-serif" font-size="14.00" fill="#000000">/diagnostics</text>
</g>
<!-- /captain&#45;&gt;/diagnostics -->
<g id="edge4" class="edge">
<title>/captain&#45;&gt;/diagnostics</title>
<path fill="none" stroke="#000000" d="M437.391,-79.9173C476.9044,-69.9414 539.0206,-53.9619 601.2107,-36.4626"/>
<polygon fill="#000000" stroke="#000000" points="602.5184,-39.7302 611.1891,-33.6417 600.614,-32.9942 602.5184,-39.7302"/>
</g>
<!-- /navigator/navigation -->
<g id="node6" class="node">
<title>/navigator/navigation</title>
<polygon fill="#fbd740" stroke="#000000" points="481.5,-180 312.5,-180 312.5,-144 481.5,-144 481.5,-180"/>
<text text-anchor="middle" x="397" y="-158.3" font-family="sans-serif" font-size="14.00" fill="#000000">/navigator/navigation</text>
</g>
<!-- /navigator/navigation&#45;&gt;/captain -->
<g id="edge5" class="edge">
<title>/navigator/navigation&#45;&gt;/captain</title>
<path fill="none" stroke="#000000" d="M397,-143.8314C397,-136.131 397,-126.9743 397,-118.4166"/>
<polygon fill="#000000" stroke="#000000" points="400.5001,-118.4132 397,-108.4133 393.5001,-118.4133 400.5001,-118.4132"/>
</g>
</g>
</svg>
