<?xml version="1.0" encoding="UTF-8" standalone="no"?>
<!DOCTYPE svg PUBLIC "-//W3C//DTD SVG 1.1//EN"
 "http://www.w3.org/Graphics/SVG/1.1/DTD/svg11.dtd">
<!-- Generated by graphviz version 2.40.1 (20161225.0304)
 -->
<!-- Title: G Pages: 1 -->
<svg width="1264pt" height="188pt"
 viewBox="0.00 0.00 1264.00 188.00" xmlns="http://www.w3.org/2000/svg" xmlns:xlink="http://www.w3.org/1999/xlink">
<g id="graph0" class="graph" transform="scale(1 1) rotate(0) translate(4 184)">
<title>G</title>
<polygon fill="#ffffff" stroke="transparent" points="-4,4 -4,-184 1260,-184 1260,4 -4,4"/>
<!-- /controller -->
<g id="node1" class="node">
<title>/controller</title>
<ellipse fill="#072c43" stroke="#000000" cx="743.5" cy="-90" rx="57.6901" ry="18"/>
<text text-anchor="middle" x="743.5" y="-86.3" font-family="sans-serif" font-size="14.00" fill="#a4c4bf">/controller</text>
</g>
<!-- /controller/merged_body_force_req -->
<g id="node2" class="node">
<title>/controller/merged_body_force_req</title>
<polygon fill="#fbd740" stroke="#000000" points="269,-36 0,-36 0,0 269,0 269,-36"/>
<text text-anchor="middle" x="134.5" y="-14.3" font-family="sans-serif" font-size="14.00" fill="#000000">/controller/merged_body_force_req</text>
</g>
<!-- /controller&#45;&gt;/controller/merged_body_force_req -->
<g id="edge1" class="edge">
<title>/controller&#45;&gt;/controller/merged_body_force_req</title>
<path fill="none" stroke="#000000" d="M688.9554,-83.8557C603.7918,-74.2234 433.7808,-54.8389 279.3695,-36.2207"/>
<polygon fill="#000000" stroke="#000000" points="279.5697,-32.7196 269.2223,-34.9956 278.7306,-39.6691 279.5697,-32.7196"/>
</g>
<!-- /controller/merged_body_velocity_req -->
<g id="node3" class="node">
<title>/controller/merged_body_velocity_req</title>
<polygon fill="#fbd740" stroke="#000000" points="574,-36 287,-36 287,0 574,0 574,-36"/>
<text text-anchor="middle" x="430.5" y="-14.3" font-family="sans-serif" font-size="14.00" fill="#000000">/controller/merged_body_velocity_req</text>
</g>
<!-- /controller&#45;&gt;/controller/merged_body_velocity_req -->
<g id="edge2" class="edge">
<title>/controller&#45;&gt;/controller/merged_body_velocity_req</title>
<path fill="none" stroke="#000000" d="M696.9787,-79.2986C650.1324,-68.5225 576.7014,-51.631 518.7754,-38.3062"/>
<polygon fill="#000000" stroke="#000000" points="519.4161,-34.8622 508.886,-36.0313 517.8468,-41.6841 519.4161,-34.8622"/>
</g>
<!-- /controller/merged_world_waypoint_req -->
<g id="node4" class="node">
<title>/controller/merged_world_waypoint_req</title>
<polygon fill="#fbd740" stroke="#000000" points="894.5,-36 592.5,-36 592.5,0 894.5,0 894.5,-36"/>
<text text-anchor="middle" x="743.5" y="-14.3" font-family="sans-serif" font-size="14.00" fill="#000000">/controller/merged_world_waypoint_req</text>
</g>
<!-- /controller&#45;&gt;/controller/merged_world_waypoint_req -->
<g id="edge3" class="edge">
<title>/controller&#45;&gt;/controller/merged_world_waypoint_req</title>
<path fill="none" stroke="#000000" d="M743.5,-71.8314C743.5,-64.131 743.5,-54.9743 743.5,-46.4166"/>
<polygon fill="#000000" stroke="#000000" points="747.0001,-46.4132 743.5,-36.4133 740.0001,-46.4133 747.0001,-46.4132"/>
</g>
<!-- /controller/thruster_setpoints -->
<g id="node5" class="node">
<title>/controller/thruster_setpoints</title>
<polygon fill="#fbd740" stroke="#000000" points="1136.5,-36 912.5,-36 912.5,0 1136.5,0 1136.5,-36"/>
<text text-anchor="middle" x="1024.5" y="-14.3" font-family="sans-serif" font-size="14.00" fill="#000000">/controller/thruster_setpoints</text>
</g>
<!-- /controller&#45;&gt;/controller/thruster_setpoints -->
<g id="edge4" class="edge">
<title>/controller&#45;&gt;/controller/thruster_setpoints</title>
<path fill="none" stroke="#000000" d="M788.336,-78.5118C830.1723,-67.7922 893.5595,-51.5506 944.1339,-38.592"/>
<polygon fill="#000000" stroke="#000000" points="945.2495,-41.9193 954.0678,-36.0467 943.5119,-35.1384 945.2495,-41.9193"/>
</g>
<!-- /diagnostics -->
<g id="node6" class="node">
<title>/diagnostics</title>
<polygon fill="#fbd740" stroke="#000000" points="1256,-36 1155,-36 1155,0 1256,0 1256,-36"/>
<text text-anchor="middle" x="1205.5" y="-14.3" font-family="sans-serif" font-size="14.00" fill="#000000">/diagnostics</text>
</g>
<!-- /controller&#45;&gt;/diagnostics -->
<g id="edge5" class="edge">
<title>/controller&#45;&gt;/diagnostics</title>
<path fill="none" stroke="#000000" d="M799.5812,-85.2869C875.7352,-78.2653 1016.1317,-63.1183 1144.8707,-35.9392"/>
<polygon fill="#000000" stroke="#000000" points="1145.8618,-39.3064 1154.9074,-33.7904 1144.3963,-32.4616 1145.8618,-39.3064"/>
</g>
<!-- /controller/body_force_req -->
<g id="node7" class="node">
<title>/controller/body_force_req</title>
<polygon fill="#fbd740" stroke="#000000" points="490,-180 285,-180 285,-144 490,-144 490,-180"/>
<text text-anchor="middle" x="387.5" y="-158.3" font-family="sans-serif" font-size="14.00" fill="#000000">/controller/body_force_req</text>
</g>
<!-- /controller/body_force_req&#45;&gt;/controller -->
<g id="edge6" class="edge">
<title>/controller/body_force_req&#45;&gt;/controller</title>
<path fill="none" stroke="#000000" d="M476.8743,-143.9243C542.0616,-130.7403 628.5397,-113.2504 685.0771,-101.8159"/>
<polygon fill="#000000" stroke="#000000" points="685.8182,-105.2369 694.9259,-99.824 684.4305,-98.3758 685.8182,-105.2369"/>
</g>
<!-- /controller/body_velocity_req -->
<g id="node8" class="node">
<title>/controller/body_velocity_req</title>
<polygon fill="#fbd740" stroke="#000000" points="731,-180 508,-180 508,-144 731,-144 731,-180"/>
<text text-anchor="middle" x="619.5" y="-158.3" font-family="sans-serif" font-size="14.00" fill="#000000">/controller/body_velocity_req</text>
</g>
<!-- /controller/body_velocity_req&#45;&gt;/controller -->
<g id="edge7" class="edge">
<title>/controller/body_velocity_req&#45;&gt;/controller</title>
<path fill="none" stroke="#000000" d="M650.7904,-143.8314C667.8974,-133.8983 689.1774,-121.5422 707.0335,-111.1741"/>
<polygon fill="#000000" stroke="#000000" points="709.1284,-114.005 716.0189,-105.9568 705.6135,-107.9514 709.1284,-114.005"/>
</g>
<!-- /controller/world_waypoint_req -->
<g id="node9" class="node">
<title>/controller/world_waypoint_req</title>
<polygon fill="#fbd740" stroke="#000000" points="987.5,-180 749.5,-180 749.5,-144 987.5,-144 987.5,-180"/>
<text text-anchor="middle" x="868.5" y="-158.3" font-family="sans-serif" font-size="14.00" fill="#000000">/controller/world_waypoint_req</text>
</g>
<!-- /controller/world_waypoint_req&#45;&gt;/controller -->
<g id="edge8" class="edge">
<title>/controller/world_waypoint_req&#45;&gt;/controller</title>
<path fill="none" stroke="#000000" d="M836.9572,-143.8314C819.7123,-133.8983 798.2607,-121.5422 780.2605,-111.1741"/>
<polygon fill="#000000" stroke="#000000" points="781.615,-107.9152 771.2028,-105.9568 778.1212,-113.9809 781.615,-107.9152"/>
</g>
<!-- /navigator/navigation -->
<g id="node10" class="node">
<title>/navigator/navigation</title>
<polygon fill="#fbd740" stroke="#000000" points="1175,-180 1006,-180 1006,-144 1175,-144 1175,-180"/>
<text text-anchor="middle" x="1090.5" y="-158.3" font-family="sans-serif" font-size="14.00" fill="#000000">/navigator/navigation</text>
</g>
<!-- /navigator/navigation&#45;&gt;/controller -->
<g id="edge9" class="edge">
<title>/navigator/navigation&#45;&gt;/controller</title>
<path fill="none" stroke="#000000" d="M1005.6143,-144.3868C942.3375,-131.2573 857.5649,-113.6676 801.7851,-102.0937"/>
<polygon fill="#000000" stroke="#000000" points="802.2215,-98.6098 791.7189,-100.0051 800.7993,-105.4638 802.2215,-98.6098"/>
</g>
</g>
</svg>
