<?xml version="1.0" encoding="UTF-8" standalone="no"?>
<!DOCTYPE svg PUBLIC "-//W3C//DTD SVG 1.1//EN"
 "http://www.w3.org/Graphics/SVG/1.1/DTD/svg11.dtd">
<!-- Generated by graphviz version 2.40.1 (20161225.0304)
 -->
<!-- Title: G Pages: 1 -->
<svg width="471pt" height="188pt"
 viewBox="0.00 0.00 470.50 188.00" xmlns="http://www.w3.org/2000/svg" xmlns:xlink="http://www.w3.org/1999/xlink">
<g id="graph0" class="graph" transform="scale(1 1) rotate(0) translate(4 184)">
<title>G</title>
<polygon fill="#ffffff" stroke="transparent" points="-4,4 -4,-184 466.5,-184 466.5,4 -4,4"/>
<!-- /keyboard_to_teleoperation -->
<g id="node1" class="node">
<title>/keyboard_to_teleoperation</title>
<ellipse fill="#072c43" stroke="#000000" cx="226" cy="-90" rx="138.3755" ry="18"/>
<text text-anchor="middle" x="226" y="-86.3" font-family="sans-serif" font-size="14.00" fill="#a4c4bf">/keyboard_to_teleoperation</text>
</g>
<!-- /input_to_teleoperation/ack -->
<g id="node2" class="node">
<title>/input_to_teleoperation/ack</title>
<polygon fill="#fbd740" stroke="#000000" points="212,-36 0,-36 0,0 212,0 212,-36"/>
<text text-anchor="middle" x="106" y="-14.3" font-family="sans-serif" font-size="14.00" fill="#000000">/input_to_teleoperation/ack</text>
</g>
<!-- /keyboard_to_teleoperation&#45;&gt;/input_to_teleoperation/ack -->
<g id="edge1" class="edge">
<title>/keyboard_to_teleoperation&#45;&gt;/input_to_teleoperation/ack</title>
<path fill="none" stroke="#000000" d="M196.6447,-72.3868C181.1889,-63.1133 162.0246,-51.6147 145.304,-41.5824"/>
<polygon fill="#000000" stroke="#000000" points="146.681,-38.3269 136.3053,-36.1832 143.0795,-44.3294 146.681,-38.3269"/>
</g>
<!-- /input_to_teleoperation/output -->
<g id="node3" class="node">
<title>/input_to_teleoperation/output</title>
<polygon fill="#fbd740" stroke="#000000" points="462.5,-36 229.5,-36 229.5,0 462.5,0 462.5,-36"/>
<text text-anchor="middle" x="346" y="-14.3" font-family="sans-serif" font-size="14.00" fill="#000000">/input_to_teleoperation/output</text>
</g>
<!-- /keyboard_to_teleoperation&#45;&gt;/input_to_teleoperation/output -->
<g id="edge2" class="edge">
<title>/keyboard_to_teleoperation&#45;&gt;/input_to_teleoperation/output</title>
<path fill="none" stroke="#000000" d="M255.3553,-72.3868C270.8111,-63.1133 289.9754,-51.6147 306.696,-41.5824"/>
<polygon fill="#000000" stroke="#000000" points="308.9205,-44.3294 315.6947,-36.1832 305.319,-38.3269 308.9205,-44.3294"/>
</g>
<!-- /joy -->
<g id="node4" class="node">
<title>/joy</title>
<polygon fill="#fbd740" stroke="#000000" points="194,-180 140,-180 140,-144 194,-144 194,-180"/>
<text text-anchor="middle" x="167" y="-158.3" font-family="sans-serif" font-size="14.00" fill="#000000">/joy</text>
</g>
<!-- /joy&#45;&gt;/keyboard_to_teleoperation -->
<g id="edge3" class="edge">
<title>/joy&#45;&gt;/keyboard_to_teleoperation</title>
<path fill="none" stroke="#000000" d="M181.8882,-143.8314C188.8586,-135.3251 197.2851,-125.0419 204.8977,-115.752"/>
<polygon fill="#000000" stroke="#000000" points="207.6899,-117.8666 211.321,-107.9134 202.2755,-113.4298 207.6899,-117.8666"/>
</g>
<!-- /teleoperation/ack -->
<g id="node5" class="node">
<title>/teleoperation/ack</title>
<polygon fill="#fbd740" stroke="#000000" points="358,-180 212,-180 212,-144 358,-144 358,-180"/>
<text text-anchor="middle" x="285" y="-158.3" font-family="sans-serif" font-size="14.00" fill="#000000">/teleoperation/ack</text>
</g>
<!-- /teleoperation/ack&#45;&gt;/keyboard_to_teleoperation -->
<g id="edge4" class="edge">
<title>/teleoperation/ack&#45;&gt;/keyboard_to_teleoperation</title>
<path fill="none" stroke="#000000" d="M270.1118,-143.8314C263.1414,-135.3251 254.7149,-125.0419 247.1023,-115.752"/>
<polygon fill="#000000" stroke="#000000" points="249.7245,-113.4298 240.679,-107.9134 244.3101,-117.8666 249.7245,-113.4298"/>
</g>
</g>
</svg>
