<?xml version="1.0" encoding="UTF-8" standalone="no"?>
<!DOCTYPE svg PUBLIC "-//W3C//DTD SVG 1.1//EN"
 "http://www.w3.org/Graphics/SVG/1.1/DTD/svg11.dtd">
<!-- Generated by graphviz version 2.40.1 (20161225.0304)
 -->
<!-- Title: G Pages: 1 -->
<svg width="471pt" height="188pt"
 viewBox="0.00 0.00 470.50 188.00" xmlns="http://www.w3.org/2000/svg" xmlns:xlink="http://www.w3.org/1999/xlink">
<g id="graph0" class="graph" transform="scale(1 1) rotate(0) translate(4 184)">
<title>G</title>
<polygon fill="#ffffff" stroke="transparent" points="-4,4 -4,-184 466.5,-184 466.5,4 -4,4"/>
<!-- /logitech_fx10_to_teleoperation -->
<g id="node1" class="node">
<title>/logitech_fx10_to_teleoperation</title>
<ellipse fill="#072c43" stroke="#000000" cx="226" cy="-90" rx="157.0724" ry="18"/>
<text text-anchor="middle" x="226" y="-86.3" font-family="sans-serif" font-size="14.00" fill="#a4c4bf">/logitech_fx10_to_teleoperation</text>
</g>
<!-- /input_to_teleoperation/ack -->
<g id="node2" class="node">
<title>/input_to_teleoperation/ack</title>
<polygon fill="#fbd740" stroke="#000000" points="212,-36 0,-36 0,0 212,0 212,-36"/>
<text text-anchor="middle" x="106" y="-14.3" font-family="sans-serif" font-size="14.00" fill="#000000">/input_to_teleoperation/ack</text>
</g>
<!-- /logitech_fx10_to_teleoperation&#45;&gt;/input_to_teleoperation/ack -->
<g id="edge1" class="edge">
<title>/logitech_fx10_to_teleoperation&#45;&gt;/input_to_teleoperation/ack</title>
<path fill="none" stroke="#000000" d="M196.3371,-72.2022C180.8771,-62.9262 161.7704,-51.4623 145.1164,-41.4698"/>
<polygon fill="#000000" stroke="#000000" points="146.5309,-38.2369 136.1552,-36.0931 142.9294,-44.2394 146.5309,-38.2369"/>
</g>
<!-- /input_to_teleoperation/output -->
<g id="node3" class="node">
<title>/input_to_teleoperation/output</title>
<polygon fill="#fbd740" stroke="#000000" points="462.5,-36 229.5,-36 229.5,0 462.5,0 462.5,-36"/>
<text text-anchor="middle" x="346" y="-14.3" font-family="sans-serif" font-size="14.00" fill="#000000">/input_to_teleoperation/output</text>
</g>
<!-- /logitech_fx10_to_teleoperation&#45;&gt;/input_to_teleoperation/output -->
<g id="edge2" class="edge">
<title>/logitech_fx10_to_teleoperation&#45;&gt;/input_to_teleoperation/output</title>
<path fill="none" stroke="#000000" d="M255.6629,-72.2022C271.1229,-62.9262 290.2296,-51.4623 306.8836,-41.4698"/>
<polygon fill="#000000" stroke="#000000" points="309.0706,-44.2394 315.8448,-36.0931 305.4691,-38.2369 309.0706,-44.2394"/>
</g>
<!-- /joy -->
<g id="node4" class="node">
<title>/joy</title>
<polygon fill="#fbd740" stroke="#000000" points="194,-180 140,-180 140,-144 194,-144 194,-180"/>
<text text-anchor="middle" x="167" y="-158.3" font-family="sans-serif" font-size="14.00" fill="#000000">/joy</text>
</g>
<!-- /joy&#45;&gt;/logitech_fx10_to_teleoperation -->
<g id="edge3" class="edge">
<title>/joy&#45;&gt;/logitech_fx10_to_teleoperation</title>
<path fill="none" stroke="#000000" d="M181.8882,-143.8314C188.753,-135.454 197.0301,-125.3531 204.5511,-116.1749"/>
<polygon fill="#000000" stroke="#000000" points="207.2803,-118.3665 210.9114,-108.4133 201.8659,-113.9297 207.2803,-118.3665"/>
</g>
<!-- /teleoperation/ack -->
<g id="node5" class="node">
<title>/teleoperation/ack</title>
<polygon fill="#fbd740" stroke="#000000" points="358,-180 212,-180 212,-144 358,-144 358,-180"/>
<text text-anchor="middle" x="285" y="-158.3" font-family="sans-serif" font-size="14.00" fill="#000000">/teleoperation/ack</text>
</g>
<!-- /teleoperation/ack&#45;&gt;/logitech_fx10_to_teleoperation -->
<g id="edge4" class="edge">
<title>/teleoperation/ack&#45;&gt;/logitech_fx10_to_teleoperation</title>
<path fill="none" stroke="#000000" d="M270.1118,-143.8314C263.247,-135.454 254.9699,-125.3531 247.4489,-116.1749"/>
<polygon fill="#000000" stroke="#000000" points="250.1341,-113.9297 241.0886,-108.4133 244.7197,-118.3665 250.1341,-113.9297"/>
</g>
</g>
</svg>
