<?xml version="1.0" encoding="UTF-8" standalone="no"?>
<!DOCTYPE svg PUBLIC "-//W3C//DTD SVG 1.1//EN"
 "http://www.w3.org/Graphics/SVG/1.1/DTD/svg11.dtd">
<!-- Generated by graphviz version 2.40.1 (20161225.0304)
 -->
<!-- Title: G Pages: 1 -->
<svg width="911pt" height="188pt"
 viewBox="0.00 0.00 911.00 188.00" xmlns="http://www.w3.org/2000/svg" xmlns:xlink="http://www.w3.org/1999/xlink">
<g id="graph0" class="graph" transform="scale(1 1) rotate(0) translate(4 184)">
<title>G</title>
<polygon fill="#ffffff" stroke="transparent" points="-4,4 -4,-184 907,-184 907,4 -4,4"/>
<!-- /pilot -->
<g id="node1" class="node">
<title>/pilot</title>
<ellipse fill="#072c43" stroke="#000000" cx="548.5" cy="-90" rx="33.5952" ry="18"/>
<text text-anchor="middle" x="548.5" y="-86.3" font-family="sans-serif" font-size="14.00" fill="#a4c4bf">/pilot</text>
</g>
<!-- /controller/body_velocity_req -->
<g id="node2" class="node">
<title>/controller/body_velocity_req</title>
<polygon fill="#fbd740" stroke="#000000" points="223,-36 0,-36 0,0 223,0 223,-36"/>
<text text-anchor="middle" x="111.5" y="-14.3" font-family="sans-serif" font-size="14.00" fill="#000000">/controller/body_velocity_req</text>
</g>
<!-- /pilot&#45;&gt;/controller/body_velocity_req -->
<g id="edge1" class="edge">
<title>/pilot&#45;&gt;/controller/body_velocity_req</title>
<path fill="none" stroke="#000000" d="M516.011,-84.6471C456.5965,-74.858 327.6735,-53.6167 231.2466,-37.7294"/>
<polygon fill="#000000" stroke="#000000" points="231.5717,-34.2359 221.1357,-36.0636 230.4337,-41.1428 231.5717,-34.2359"/>
</g>
<!-- /controller/world_waypoint_req -->
<g id="node3" class="node">
<title>/controller/world_waypoint_req</title>
<polygon fill="#fbd740" stroke="#000000" points="479.5,-36 241.5,-36 241.5,0 479.5,0 479.5,-36"/>
<text text-anchor="middle" x="360.5" y="-14.3" font-family="sans-serif" font-size="14.00" fill="#000000">/controller/world_waypoint_req</text>
</g>
<!-- /pilot&#45;&gt;/controller/world_waypoint_req -->
<g id="edge2" class="edge">
<title>/pilot&#45;&gt;/controller/world_waypoint_req</title>
<path fill="none" stroke="#000000" d="M520.76,-79.3762C493.5917,-68.9713 451.3985,-52.8122 417.1243,-39.6859"/>
<polygon fill="#000000" stroke="#000000" points="418.2767,-36.3794 407.6863,-36.0714 415.7731,-42.9164 418.2767,-36.3794"/>
</g>
<!-- /diagnostics -->
<g id="node4" class="node">
<title>/diagnostics</title>
<polygon fill="#fbd740" stroke="#000000" points="599,-36 498,-36 498,0 599,0 599,-36"/>
<text text-anchor="middle" x="548.5" y="-14.3" font-family="sans-serif" font-size="14.00" fill="#000000">/diagnostics</text>
</g>
<!-- /pilot&#45;&gt;/diagnostics -->
<g id="edge3" class="edge">
<title>/pilot&#45;&gt;/diagnostics</title>
<path fill="none" stroke="#000000" d="M548.5,-71.8314C548.5,-64.131 548.5,-54.9743 548.5,-46.4166"/>
<polygon fill="#000000" stroke="#000000" points="552.0001,-46.4132 548.5,-36.4133 545.0001,-46.4133 552.0001,-46.4132"/>
</g>
<!-- /pilot/goal -->
<g id="node5" class="node">
<title>/pilot/goal</title>
<polygon fill="#fbd740" stroke="#000000" points="704,-36 617,-36 617,0 704,0 704,-36"/>
<text text-anchor="middle" x="660.5" y="-14.3" font-family="sans-serif" font-size="14.00" fill="#000000">/pilot/goal</text>
</g>
<!-- /pilot&#45;&gt;/pilot/goal -->
<g id="edge4" class="edge">
<title>/pilot&#45;&gt;/pilot/goal</title>
<path fill="none" stroke="#000000" d="M570.0947,-76.1177C585.2811,-66.355 605.9789,-53.0493 623.7383,-41.6325"/>
<polygon fill="#000000" stroke="#000000" points="625.6643,-44.5553 632.1834,-36.2035 621.8789,-38.667 625.6643,-44.5553"/>
</g>
<!-- /pilot/waypoint_marker -->
<g id="node6" class="node">
<title>/pilot/waypoint_marker</title>
<polygon fill="#fbd740" stroke="#000000" points="903,-36 722,-36 722,0 903,0 903,-36"/>
<text text-anchor="middle" x="812.5" y="-14.3" font-family="sans-serif" font-size="14.00" fill="#000000">/pilot/waypoint_marker</text>
</g>
<!-- /pilot&#45;&gt;/pilot/waypoint_marker -->
<g id="edge5" class="edge">
<title>/pilot&#45;&gt;/pilot/waypoint_marker</title>
<path fill="none" stroke="#000000" d="M578.7842,-81.7407C616.9555,-71.3303 683.9207,-53.0671 736.4139,-38.7508"/>
<polygon fill="#000000" stroke="#000000" points="737.6446,-42.043 746.3713,-36.0351 735.8028,-35.2897 737.6446,-42.043"/>
</g>
<!-- /navigator/navigation -->
<g id="node7" class="node">
<title>/navigator/navigation</title>
<polygon fill="#fbd740" stroke="#000000" points="633,-180 464,-180 464,-144 633,-144 633,-180"/>
<text text-anchor="middle" x="548.5" y="-158.3" font-family="sans-serif" font-size="14.00" fill="#000000">/navigator/navigation</text>
</g>
<!-- /navigator/navigation&#45;&gt;/pilot -->
<g id="edge6" class="edge">
<title>/navigator/navigation&#45;&gt;/pilot</title>
<path fill="none" stroke="#000000" d="M548.5,-143.8314C548.5,-136.131 548.5,-126.9743 548.5,-118.4166"/>
<polygon fill="#000000" stroke="#000000" points="552.0001,-118.4132 548.5,-108.4133 545.0001,-118.4133 552.0001,-118.4132"/>
</g>
</g>
</svg>
