<?xml version="1.0" encoding="UTF-8" standalone="no"?>
<!DOCTYPE svg PUBLIC "-//W3C//DTD SVG 1.1//EN"
 "http://www.w3.org/Graphics/SVG/1.1/DTD/svg11.dtd">
<!-- Generated by graphviz version 2.40.1 (20161225.0304)
 -->
<!-- Title: G Pages: 1 -->
<svg width="772pt" height="188pt"
 viewBox="0.00 0.00 771.50 188.00" xmlns="http://www.w3.org/2000/svg" xmlns:xlink="http://www.w3.org/1999/xlink">
<g id="graph0" class="graph" transform="scale(1 1) rotate(0) translate(4 184)">
<title>G</title>
<polygon fill="#ffffff" stroke="transparent" points="-4,4 -4,-184 767.5,-184 767.5,4 -4,4"/>
<!-- /teleoperation -->
<g id="node1" class="node">
<title>/teleoperation</title>
<ellipse fill="#072c43" stroke="#000000" cx="454.5" cy="-90" rx="76.0865" ry="18"/>
<text text-anchor="middle" x="454.5" y="-86.3" font-family="sans-serif" font-size="14.00" fill="#a4c4bf">/teleoperation</text>
</g>
<!-- /controller/body_velocity_req -->
<g id="node2" class="node">
<title>/controller/body_velocity_req</title>
<polygon fill="#fbd740" stroke="#000000" points="223,-36 0,-36 0,0 223,0 223,-36"/>
<text text-anchor="middle" x="111.5" y="-14.3" font-family="sans-serif" font-size="14.00" fill="#000000">/controller/body_velocity_req</text>
</g>
<!-- /teleoperation&#45;&gt;/controller/body_velocity_req -->
<g id="edge1" class="edge">
<title>/teleoperation&#45;&gt;/controller/body_velocity_req</title>
<path fill="none" stroke="#000000" d="M397.4755,-78.0298C345.7767,-67.1776 268.5358,-50.9638 207.3561,-38.1214"/>
<polygon fill="#000000" stroke="#000000" points="207.8008,-34.6385 197.295,-36.0094 206.3627,-41.4892 207.8008,-34.6385"/>
</g>
<!-- /controller/world_waypoint_req -->
<g id="node3" class="node">
<title>/controller/world_waypoint_req</title>
<polygon fill="#fbd740" stroke="#000000" points="479.5,-36 241.5,-36 241.5,0 479.5,0 479.5,-36"/>
<text text-anchor="middle" x="360.5" y="-14.3" font-family="sans-serif" font-size="14.00" fill="#000000">/controller/world_waypoint_req</text>
</g>
<!-- /teleoperation&#45;&gt;/controller/world_waypoint_req -->
<g id="edge2" class="edge">
<title>/teleoperation&#45;&gt;/controller/world_waypoint_req</title>
<path fill="none" stroke="#000000" d="M431.7452,-72.5708C419.8891,-63.4896 405.1986,-52.2372 392.2429,-42.3137"/>
<polygon fill="#000000" stroke="#000000" points="394.094,-39.3228 384.0269,-36.0206 389.8374,-44.88 394.094,-39.3228"/>
</g>
<!-- /diagnostics -->
<g id="node4" class="node">
<title>/diagnostics</title>
<polygon fill="#fbd740" stroke="#000000" points="599,-36 498,-36 498,0 599,0 599,-36"/>
<text text-anchor="middle" x="548.5" y="-14.3" font-family="sans-serif" font-size="14.00" fill="#000000">/diagnostics</text>
</g>
<!-- /teleoperation&#45;&gt;/diagnostics -->
<g id="edge3" class="edge">
<title>/teleoperation&#45;&gt;/diagnostics</title>
<path fill="none" stroke="#000000" d="M477.2548,-72.5708C489.1109,-63.4896 503.8014,-52.2372 516.7571,-42.3137"/>
<polygon fill="#000000" stroke="#000000" points="519.1626,-44.88 524.9731,-36.0206 514.906,-39.3228 519.1626,-44.88"/>
</g>
<!-- /teleoperation/ack -->
<g id="node5" class="node">
<title>/teleoperation/ack</title>
<polygon fill="#fbd740" stroke="#000000" points="763.5,-36 617.5,-36 617.5,0 763.5,0 763.5,-36"/>
<text text-anchor="middle" x="690.5" y="-14.3" font-family="sans-serif" font-size="14.00" fill="#000000">/teleoperation/ack</text>
</g>
<!-- /teleoperation&#45;&gt;/teleoperation/ack -->
<g id="edge4" class="edge">
<title>/teleoperation&#45;&gt;/teleoperation/ack</title>
<path fill="none" stroke="#000000" d="M501.126,-75.7751C535.5526,-65.2721 582.9624,-50.8081 621.7323,-38.98"/>
<polygon fill="#000000" stroke="#000000" points="622.8463,-42.2994 631.3897,-36.0336 620.8036,-35.6041 622.8463,-42.2994"/>
</g>
<!-- /input_to_teleoperation/ack -->
<g id="node6" class="node">
<title>/input_to_teleoperation/ack</title>
<polygon fill="#fbd740" stroke="#000000" points="320.5,-180 108.5,-180 108.5,-144 320.5,-144 320.5,-180"/>
<text text-anchor="middle" x="214.5" y="-158.3" font-family="sans-serif" font-size="14.00" fill="#000000">/input_to_teleoperation/ack</text>
</g>
<!-- /input_to_teleoperation/ack&#45;&gt;/teleoperation -->
<g id="edge5" class="edge">
<title>/input_to_teleoperation/ack&#45;&gt;/teleoperation</title>
<path fill="none" stroke="#000000" d="M274.7523,-143.9243C312.3538,-132.6439 360.4631,-118.2111 397.4461,-107.1162"/>
<polygon fill="#000000" stroke="#000000" points="398.5062,-110.4523 407.0787,-104.2264 396.4947,-103.7476 398.5062,-110.4523"/>
</g>
<!-- /input_to_teleoperation/output -->
<g id="node7" class="node">
<title>/input_to_teleoperation/output</title>
<polygon fill="#fbd740" stroke="#000000" points="571,-180 338,-180 338,-144 571,-144 571,-180"/>
<text text-anchor="middle" x="454.5" y="-158.3" font-family="sans-serif" font-size="14.00" fill="#000000">/input_to_teleoperation/output</text>
</g>
<!-- /input_to_teleoperation/output&#45;&gt;/teleoperation -->
<g id="edge6" class="edge">
<title>/input_to_teleoperation/output&#45;&gt;/teleoperation</title>
<path fill="none" stroke="#000000" d="M454.5,-143.8314C454.5,-136.131 454.5,-126.9743 454.5,-118.4166"/>
<polygon fill="#000000" stroke="#000000" points="458.0001,-118.4132 454.5,-108.4133 451.0001,-118.4133 458.0001,-118.4132"/>
</g>
<!-- /navigator/navigation -->
<g id="node8" class="node">
<title>/navigator/navigation</title>
<polygon fill="#fbd740" stroke="#000000" points="758,-180 589,-180 589,-144 758,-144 758,-180"/>
<text text-anchor="middle" x="673.5" y="-158.3" font-family="sans-serif" font-size="14.00" fill="#000000">/navigator/navigation</text>
</g>
<!-- /navigator/navigation&#45;&gt;/teleoperation -->
<g id="edge7" class="edge">
<title>/navigator/navigation&#45;&gt;/teleoperation</title>
<path fill="none" stroke="#000000" d="M618.5197,-143.9243C584.9617,-132.8915 542.2317,-118.8433 508.7989,-107.8517"/>
<polygon fill="#000000" stroke="#000000" points="509.7806,-104.4902 499.1877,-104.6919 507.5943,-111.1401 509.7806,-104.4902"/>
</g>
</g>
</svg>
