<?xml version="1.0" encoding="UTF-8" standalone="no"?>
<!DOCTYPE svg PUBLIC "-//W3C//DTD SVG 1.1//EN"
 "http://www.w3.org/Graphics/SVG/1.1/DTD/svg11.dtd">
<!-- Generated by graphviz version 2.40.1 (20161225.0304)
 -->
<!-- Title: G Pages: 1 -->
<svg width="855pt" height="116pt"
 viewBox="0.00 0.00 854.50 116.00" xmlns="http://www.w3.org/2000/svg" xmlns:xlink="http://www.w3.org/1999/xlink">
<g id="graph0" class="graph" transform="scale(1 1) rotate(0) translate(4 112)">
<title>G</title>
<polygon fill="#ffffff" stroke="transparent" points="-4,4 -4,-112 850.5,-112 850.5,4 -4,4"/>
<!-- /computer_logger -->
<g id="node1" class="node">
<title>/computer_logger</title>
<ellipse fill="#072c43" stroke="#000000" cx="482" cy="-90" rx="92.8835" ry="18"/>
<text text-anchor="middle" x="482" y="-86.3" font-family="sans-serif" font-size="14.00" fill="#a4c4bf">/computer_logger</text>
</g>
<!-- /computer_logger/cpu_usage -->
<g id="node2" class="node">
<title>/computer_logger/cpu_usage</title>
<polygon fill="#fbd740" stroke="#000000" points="224,-36 0,-36 0,0 224,0 224,-36"/>
<text text-anchor="middle" x="112" y="-14.3" font-family="sans-serif" font-size="14.00" fill="#000000">/computer_logger/cpu_usage</text>
</g>
<!-- /computer_logger&#45;&gt;/computer_logger/cpu_usage -->
<g id="edge1" class="edge">
<title>/computer_logger&#45;&gt;/computer_logger/cpu_usage</title>
<path fill="none" stroke="#000000" d="M416.2778,-77.2108C360.395,-66.3363 279.1994,-50.5361 214.7368,-37.992"/>
<polygon fill="#000000" stroke="#000000" points="215.0256,-34.4826 204.5411,-36.008 213.6884,-41.3538 215.0256,-34.4826"/>
</g>
<!-- /computer_logger/ram_usage -->
<g id="node3" class="node">
<title>/computer_logger/ram_usage</title>
<polygon fill="#fbd740" stroke="#000000" points="470,-36 242,-36 242,0 470,0 470,-36"/>
<text text-anchor="middle" x="356" y="-14.3" font-family="sans-serif" font-size="14.00" fill="#000000">/computer_logger/ram_usage</text>
</g>
<!-- /computer_logger&#45;&gt;/computer_logger/ram_usage -->
<g id="edge2" class="edge">
<title>/computer_logger&#45;&gt;/computer_logger/ram_usage</title>
<path fill="none" stroke="#000000" d="M452.1398,-72.937C435.6555,-63.5174 414.9395,-51.6797 396.9627,-41.4072"/>
<polygon fill="#000000" stroke="#000000" points="398.2675,-38.1217 387.8485,-36.1992 394.7945,-44.1995 398.2675,-38.1217"/>
</g>
<!-- /computer_logger/temperature -->
<g id="node4" class="node">
<title>/computer_logger/temperature</title>
<polygon fill="#fbd740" stroke="#000000" points="727.5,-36 488.5,-36 488.5,0 727.5,0 727.5,-36"/>
<text text-anchor="middle" x="608" y="-14.3" font-family="sans-serif" font-size="14.00" fill="#000000">/computer_logger/temperature</text>
</g>
<!-- /computer_logger&#45;&gt;/computer_logger/temperature -->
<g id="edge3" class="edge">
<title>/computer_logger&#45;&gt;/computer_logger/temperature</title>
<path fill="none" stroke="#000000" d="M511.8602,-72.937C528.3445,-63.5174 549.0605,-51.6797 567.0373,-41.4072"/>
<polygon fill="#000000" stroke="#000000" points="569.2055,-44.1995 576.1515,-36.1992 565.7325,-38.1217 569.2055,-44.1995"/>
</g>
<!-- /diagnostics -->
<g id="node5" class="node">
<title>/diagnostics</title>
<polygon fill="#fbd740" stroke="#000000" points="846.5,-36 745.5,-36 745.5,0 846.5,0 846.5,-36"/>
<text text-anchor="middle" x="796" y="-14.3" font-family="sans-serif" font-size="14.00" fill="#000000">/diagnostics</text>
</g>
<!-- /computer_logger&#45;&gt;/diagnostics -->
<g id="edge4" class="edge">
<title>/computer_logger&#45;&gt;/diagnostics</title>
<path fill="none" stroke="#000000" d="M548.9486,-77.485C598.1779,-67.9008 666.8774,-53.7342 735.1617,-36.3803"/>
<polygon fill="#000000" stroke="#000000" points="736.4146,-39.6723 745.2311,-33.7969 734.675,-32.8919 736.4146,-39.6723"/>
</g>
</g>
</svg>
