<?xml version="1.0" encoding="UTF-8" standalone="no"?>
<!DOCTYPE svg PUBLIC "-//W3C//DTD SVG 1.1//EN"
 "http://www.w3.org/Graphics/SVG/1.1/DTD/svg11.dtd">
<!-- Generated by graphviz version 2.40.1 (20161225.0304)
 -->
<!-- Title: G Pages: 1 -->
<svg width="356pt" height="116pt"
 viewBox="0.00 0.00 356.00 116.00" xmlns="http://www.w3.org/2000/svg" xmlns:xlink="http://www.w3.org/1999/xlink">
<g id="graph0" class="graph" transform="scale(1 1) rotate(0) translate(4 112)">
<title>G</title>
<polygon fill="#ffffff" stroke="transparent" points="-4,4 -4,-112 352,-112 352,4 -4,4"/>
<!-- /param_logger -->
<g id="node1" class="node">
<title>/param_logger</title>
<ellipse fill="#072c43" stroke="#000000" cx="141.5" cy="-90" rx="79.0865" ry="18"/>
<text text-anchor="middle" x="141.5" y="-86.3" font-family="sans-serif" font-size="14.00" fill="#a4c4bf">/param_logger</text>
</g>
<!-- /diagnostics -->
<g id="node2" class="node">
<title>/diagnostics</title>
<polygon fill="#fbd740" stroke="#000000" points="101,-36 0,-36 0,0 101,0 101,-36"/>
<text text-anchor="middle" x="50.5" y="-14.3" font-family="sans-serif" font-size="14.00" fill="#000000">/diagnostics</text>
</g>
<!-- /param_logger&#45;&gt;/diagnostics -->
<g id="edge1" class="edge">
<title>/param_logger&#45;&gt;/diagnostics</title>
<path fill="none" stroke="#000000" d="M119.4714,-72.5708C107.9937,-63.4896 93.772,-52.2372 81.2298,-42.3137"/>
<polygon fill="#000000" stroke="#000000" points="83.29,-39.4807 73.276,-36.0206 78.9466,-44.9702 83.29,-39.4807"/>
</g>
<!-- /param_logger/params_string -->
<g id="node3" class="node">
<title>/param_logger/params_string</title>
<polygon fill="#fbd740" stroke="#000000" points="348,-36 119,-36 119,0 348,0 348,-36"/>
<text text-anchor="middle" x="233.5" y="-14.3" font-family="sans-serif" font-size="14.00" fill="#000000">/param_logger/params_string</text>
</g>
<!-- /param_logger&#45;&gt;/param_logger/params_string -->
<g id="edge2" class="edge">
<title>/param_logger&#45;&gt;/param_logger/params_string</title>
<path fill="none" stroke="#000000" d="M163.7706,-72.5708C175.3745,-63.4896 189.7525,-52.2372 202.4325,-42.3137"/>
<polygon fill="#000000" stroke="#000000" points="204.7557,-44.94 210.4737,-36.0206 200.4415,-39.4274 204.7557,-44.94"/>
</g>
</g>
</svg>
