<?xml version="1.0" encoding="UTF-8" standalone="no"?>
<!DOCTYPE svg PUBLIC "-//W3C//DTD SVG 1.1//EN"
 "http://www.w3.org/Graphics/SVG/1.1/DTD/svg11.dtd">
<!-- Generated by graphviz version 2.40.1 (20161225.0304)
 -->
<!-- Title: G Pages: 1 -->
<svg width="1009pt" height="188pt"
 viewBox="0.00 0.00 1009.00 188.00" xmlns="http://www.w3.org/2000/svg" xmlns:xlink="http://www.w3.org/1999/xlink">
<g id="graph0" class="graph" transform="scale(1 1) rotate(0) translate(4 184)">
<title>G</title>
<polygon fill="#ffffff" stroke="transparent" points="-4,4 -4,-184 1005,-184 1005,4 -4,4"/>
<!-- /dynamics -->
<g id="node1" class="node">
<title>/dynamics</title>
<ellipse fill="#072c43" stroke="#000000" cx="500.5" cy="-90" rx="57.6901" ry="18"/>
<text text-anchor="middle" x="500.5" y="-86.3" font-family="sans-serif" font-size="14.00" fill="#a4c4bf">/dynamics</text>
</g>
<!-- /diagnostics -->
<g id="node2" class="node">
<title>/diagnostics</title>
<polygon fill="#fbd740" stroke="#000000" points="301,-36 200,-36 200,0 301,0 301,-36"/>
<text text-anchor="middle" x="250.5" y="-14.3" font-family="sans-serif" font-size="14.00" fill="#000000">/diagnostics</text>
</g>
<!-- /dynamics&#45;&gt;/diagnostics -->
<g id="edge1" class="edge">
<title>/dynamics&#45;&gt;/diagnostics</title>
<path fill="none" stroke="#000000" d="M457.4365,-77.9536C421.001,-67.7179 367.1518,-52.4892 310.9909,-36.1244"/>
<polygon fill="#000000" stroke="#000000" points="311.8038,-32.7157 301.2236,-33.2736 309.8424,-39.4353 311.8038,-32.7157"/>
</g>
<!-- /dynamics/odometry -->
<g id="node3" class="node">
<title>/dynamics/odometry</title>
<polygon fill="#fbd740" stroke="#000000" points="483.5,-36 319.5,-36 319.5,0 483.5,0 483.5,-36"/>
<text text-anchor="middle" x="401.5" y="-14.3" font-family="sans-serif" font-size="14.00" fill="#000000">/dynamics/odometry</text>
</g>
<!-- /dynamics&#45;&gt;/dynamics/odometry -->
<g id="edge2" class="edge">
<title>/dynamics&#45;&gt;/dynamics/odometry</title>
<path fill="none" stroke="#000000" d="M477.5386,-73.3008C464.8614,-64.081 448.8872,-52.4634 434.8562,-42.2591"/>
<polygon fill="#000000" stroke="#000000" points="436.564,-39.1733 426.418,-36.1222 432.4467,-44.8345 436.564,-39.1733"/>
</g>
<!-- /gazebo/set_model_state -->
<g id="node4" class="node">
<title>/gazebo/set_model_state</title>
<polygon fill="#fbd740" stroke="#000000" points="697.5,-36 501.5,-36 501.5,0 697.5,0 697.5,-36"/>
<text text-anchor="middle" x="599.5" y="-14.3" font-family="sans-serif" font-size="14.00" fill="#000000">/gazebo/set_model_state</text>
</g>
<!-- /dynamics&#45;&gt;/gazebo/set_model_state -->
<g id="edge3" class="edge">
<title>/dynamics&#45;&gt;/gazebo/set_model_state</title>
<path fill="none" stroke="#000000" d="M523.4614,-73.3008C536.1386,-64.081 552.1128,-52.4634 566.1438,-42.2591"/>
<polygon fill="#000000" stroke="#000000" points="568.5533,-44.8345 574.582,-36.1222 564.436,-39.1733 568.5533,-44.8345"/>
</g>
<!-- /setpoints_selector/thruster_setpoints -->
<g id="node5" class="node">
<title>/setpoints_selector/thruster_setpoints</title>
<polygon fill="#fbd740" stroke="#000000" points="1001,-36 716,-36 716,0 1001,0 1001,-36"/>
<text text-anchor="middle" x="858.5" y="-14.3" font-family="sans-serif" font-size="14.00" fill="#000000">/setpoints_selector/thruster_setpoints</text>
</g>
<!-- /dynamics&#45;&gt;/setpoints_selector/thruster_setpoints -->
<g id="edge4" class="edge">
<title>/dynamics&#45;&gt;/setpoints_selector/thruster_setpoints</title>
<path fill="none" stroke="#000000" d="M549.154,-80.2148C602.8172,-69.4222 690.6174,-51.7641 758.9955,-38.0121"/>
<polygon fill="#000000" stroke="#000000" points="759.8232,-41.4158 768.9368,-36.0127 758.443,-34.5532 759.8232,-41.4158"/>
</g>
<!-- /controller/merged_body_force_req -->
<g id="node6" class="node">
<title>/controller/merged_body_force_req</title>
<polygon fill="#fbd740" stroke="#000000" points="269,-180 0,-180 0,-144 269,-144 269,-180"/>
<text text-anchor="middle" x="134.5" y="-158.3" font-family="sans-serif" font-size="14.00" fill="#000000">/controller/merged_body_force_req</text>
</g>
<!-- /controller/merged_body_force_req&#45;&gt;/dynamics -->
<g id="edge5" class="edge">
<title>/controller/merged_body_force_req&#45;&gt;/dynamics</title>
<path fill="none" stroke="#000000" d="M226.3848,-143.9243C293.8028,-130.6618 383.3713,-113.0417 441.4722,-101.612"/>
<polygon fill="#000000" stroke="#000000" points="442.4493,-104.987 451.5857,-99.6225 441.0981,-98.1186 442.4493,-104.987"/>
</g>
<!-- /controller/thruster_setpoints -->
<g id="node7" class="node">
<title>/controller/thruster_setpoints</title>
<polygon fill="#fbd740" stroke="#000000" points="511.5,-180 287.5,-180 287.5,-144 511.5,-144 511.5,-180"/>
<text text-anchor="middle" x="399.5" y="-158.3" font-family="sans-serif" font-size="14.00" fill="#000000">/controller/thruster_setpoints</text>
</g>
<!-- /controller/thruster_setpoints&#45;&gt;/dynamics -->
<g id="edge6" class="edge">
<title>/controller/thruster_setpoints&#45;&gt;/dynamics</title>
<path fill="none" stroke="#000000" d="M424.9866,-143.8314C438.2466,-134.3787 454.5848,-122.7316 468.6685,-112.6918"/>
<polygon fill="#000000" stroke="#000000" points="470.9874,-115.337 477.0985,-106.6822 466.9241,-109.637 470.9874,-115.337"/>
</g>
<!-- /dynamics/current -->
<g id="node8" class="node">
<title>/dynamics/current</title>
<polygon fill="#fbd740" stroke="#000000" points="675.5,-180 529.5,-180 529.5,-144 675.5,-144 675.5,-180"/>
<text text-anchor="middle" x="602.5" y="-158.3" font-family="sans-serif" font-size="14.00" fill="#000000">/dynamics/current</text>
</g>
<!-- /dynamics/current&#45;&gt;/dynamics -->
<g id="edge7" class="edge">
<title>/dynamics/current&#45;&gt;/dynamics</title>
<path fill="none" stroke="#000000" d="M576.7611,-143.8314C563.3698,-134.3787 546.8698,-122.7316 532.6467,-112.6918"/>
<polygon fill="#000000" stroke="#000000" points="534.3213,-109.5897 524.1332,-106.6822 530.2844,-115.3085 534.3213,-109.5897"/>
</g>
<!-- /dynamics/pose_overwrite -->
<g id="node9" class="node">
<title>/dynamics/pose_overwrite</title>
<polygon fill="#fbd740" stroke="#000000" points="897.5,-180 693.5,-180 693.5,-144 897.5,-144 897.5,-180"/>
<text text-anchor="middle" x="795.5" y="-158.3" font-family="sans-serif" font-size="14.00" fill="#000000">/dynamics/pose_overwrite</text>
</g>
<!-- /dynamics/pose_overwrite&#45;&gt;/dynamics -->
<g id="edge8" class="edge">
<title>/dynamics/pose_overwrite&#45;&gt;/dynamics</title>
<path fill="none" stroke="#000000" d="M721.4398,-143.9243C670.0808,-131.3892 602.7731,-114.9616 556.005,-103.547"/>
<polygon fill="#000000" stroke="#000000" points="556.601,-100.0898 546.0562,-101.1188 554.9412,-106.8902 556.601,-100.0898"/>
</g>
</g>
</svg>
