<?xml version="1.0" encoding="UTF-8" standalone="no"?>
<!DOCTYPE svg PUBLIC "-//W3C//DTD SVG 1.1//EN"
 "http://www.w3.org/Graphics/SVG/1.1/DTD/svg11.dtd">
<!-- Generated by graphviz version 2.40.1 (20161225.0304)
 -->
<!-- Title: G Pages: 1 -->
<svg width="1386pt" height="188pt"
 viewBox="0.00 0.00 1386.00 188.00" xmlns="http://www.w3.org/2000/svg" xmlns:xlink="http://www.w3.org/1999/xlink">
<g id="graph0" class="graph" transform="scale(1 1) rotate(0) translate(4 184)">
<title>G</title>
<polygon fill="#ffffff" stroke="transparent" points="-4,4 -4,-184 1382,-184 1382,4 -4,4"/>
<!-- /sim_auv_nav_sensors -->
<g id="node1" class="node">
<title>/sim_auv_nav_sensors</title>
<ellipse fill="#072c43" stroke="#000000" cx="547.5" cy="-90" rx="115.0796" ry="18"/>
<text text-anchor="middle" x="547.5" y="-86.3" font-family="sans-serif" font-size="14.00" fill="#a4c4bf">/sim_auv_nav_sensors</text>
</g>
<!-- /diagnostics -->
<g id="node2" class="node">
<title>/diagnostics</title>
<polygon fill="#fbd740" stroke="#000000" points="101,-36 0,-36 0,0 101,0 101,-36"/>
<text text-anchor="middle" x="50.5" y="-14.3" font-family="sans-serif" font-size="14.00" fill="#000000">/diagnostics</text>
</g>
<!-- /sim_auv_nav_sensors&#45;&gt;/diagnostics -->
<g id="edge1" class="edge">
<title>/sim_auv_nav_sensors&#45;&gt;/diagnostics</title>
<path fill="none" stroke="#000000" d="M443.8267,-82.1444C357.2032,-74.436 230.4353,-60.4963 111.1277,-35.9264"/>
<polygon fill="#000000" stroke="#000000" points="111.5887,-32.4472 101.0844,-33.8289 110.1577,-39.2994 111.5887,-32.4472"/>
</g>
<!-- /navigator/altitude -->
<g id="node3" class="node">
<title>/navigator/altitude</title>
<polygon fill="#fbd740" stroke="#000000" points="267.5,-36 119.5,-36 119.5,0 267.5,0 267.5,-36"/>
<text text-anchor="middle" x="193.5" y="-14.3" font-family="sans-serif" font-size="14.00" fill="#000000">/navigator/altitude</text>
</g>
<!-- /sim_auv_nav_sensors&#45;&gt;/navigator/altitude -->
<g id="edge2" class="edge">
<title>/sim_auv_nav_sensors&#45;&gt;/navigator/altitude</title>
<path fill="none" stroke="#000000" d="M475.2542,-75.9482C422.9682,-65.6987 350.3438,-51.2992 277.5084,-36.1946"/>
<polygon fill="#000000" stroke="#000000" points="278.2015,-32.7639 267.6985,-34.1562 276.7773,-39.6175 278.2015,-32.7639"/>
</g>
<!-- /navigator/dvl -->
<g id="node4" class="node">
<title>/navigator/dvl</title>
<polygon fill="#fbd740" stroke="#000000" points="401,-36 286,-36 286,0 401,0 401,-36"/>
<text text-anchor="middle" x="343.5" y="-14.3" font-family="sans-serif" font-size="14.00" fill="#000000">/navigator/dvl</text>
</g>
<!-- /sim_auv_nav_sensors&#45;&gt;/navigator/dvl -->
<g id="edge3" class="edge">
<title>/sim_auv_nav_sensors&#45;&gt;/navigator/dvl</title>
<path fill="none" stroke="#000000" d="M500.6983,-73.4817C472.1453,-63.4042 435.3343,-50.4121 404.5126,-39.5338"/>
<polygon fill="#000000" stroke="#000000" points="405.3288,-36.1104 394.734,-36.0826 402.999,-42.7113 405.3288,-36.1104"/>
</g>
<!-- /navigator/gps -->
<g id="node5" class="node">
<title>/navigator/gps</title>
<polygon fill="#fbd740" stroke="#000000" points="538,-36 419,-36 419,0 538,0 538,-36"/>
<text text-anchor="middle" x="478.5" y="-14.3" font-family="sans-serif" font-size="14.00" fill="#000000">/navigator/gps</text>
</g>
<!-- /sim_auv_nav_sensors&#45;&gt;/navigator/gps -->
<g id="edge4" class="edge">
<title>/sim_auv_nav_sensors&#45;&gt;/navigator/gps</title>
<path fill="none" stroke="#000000" d="M530.0884,-71.8314C521.979,-63.3694 512.1844,-53.1489 503.318,-43.8971"/>
<polygon fill="#000000" stroke="#000000" points="505.5921,-41.2115 496.146,-36.4133 500.5382,-46.0549 505.5921,-41.2115"/>
</g>
<!-- /navigator/imu -->
<g id="node6" class="node">
<title>/navigator/imu</title>
<polygon fill="#fbd740" stroke="#000000" points="677,-36 556,-36 556,0 677,0 677,-36"/>
<text text-anchor="middle" x="616.5" y="-14.3" font-family="sans-serif" font-size="14.00" fill="#000000">/navigator/imu</text>
</g>
<!-- /sim_auv_nav_sensors&#45;&gt;/navigator/imu -->
<g id="edge5" class="edge">
<title>/sim_auv_nav_sensors&#45;&gt;/navigator/imu</title>
<path fill="none" stroke="#000000" d="M564.9116,-71.8314C573.021,-63.3694 582.8156,-53.1489 591.682,-43.8971"/>
<polygon fill="#000000" stroke="#000000" points="594.4618,-46.0549 598.854,-36.4133 589.4079,-41.2115 594.4618,-46.0549"/>
</g>
<!-- /navigator/pressure -->
<g id="node7" class="node">
<title>/navigator/pressure</title>
<polygon fill="#fbd740" stroke="#000000" points="852,-36 695,-36 695,0 852,0 852,-36"/>
<text text-anchor="middle" x="773.5" y="-14.3" font-family="sans-serif" font-size="14.00" fill="#000000">/navigator/pressure</text>
</g>
<!-- /sim_auv_nav_sensors&#45;&gt;/navigator/pressure -->
<g id="edge6" class="edge">
<title>/sim_auv_nav_sensors&#45;&gt;/navigator/pressure</title>
<path fill="none" stroke="#000000" d="M598.2188,-73.8418C630.4562,-63.5715 672.5286,-50.1679 707.3734,-39.0669"/>
<polygon fill="#000000" stroke="#000000" points="708.5299,-42.3718 716.9956,-36.0014 706.405,-35.7021 708.5299,-42.3718"/>
</g>
<!-- /navigator/sound_velocity -->
<g id="node8" class="node">
<title>/navigator/sound_velocity</title>
<polygon fill="#fbd740" stroke="#000000" points="1070.5,-36 870.5,-36 870.5,0 1070.5,0 1070.5,-36"/>
<text text-anchor="middle" x="970.5" y="-14.3" font-family="sans-serif" font-size="14.00" fill="#000000">/navigator/sound_velocity</text>
</g>
<!-- /sim_auv_nav_sensors&#45;&gt;/navigator/sound_velocity -->
<g id="edge7" class="edge">
<title>/sim_auv_nav_sensors&#45;&gt;/navigator/sound_velocity</title>
<path fill="none" stroke="#000000" d="M625.5777,-76.7102C691.4679,-65.4948 786.5589,-49.3091 860.2172,-36.7715"/>
<polygon fill="#000000" stroke="#000000" points="861.1923,-40.156 870.4632,-35.0275 860.0177,-33.2552 861.1923,-40.156"/>
</g>
<!-- /valeport_sound_velocity/temperature -->
<g id="node9" class="node">
<title>/valeport_sound_velocity/temperature</title>
<polygon fill="#fbd740" stroke="#000000" points="1378,-36 1089,-36 1089,0 1378,0 1378,-36"/>
<text text-anchor="middle" x="1233.5" y="-14.3" font-family="sans-serif" font-size="14.00" fill="#000000">/valeport_sound_velocity/temperature</text>
</g>
<!-- /sim_auv_nav_sensors&#45;&gt;/valeport_sound_velocity/temperature -->
<g id="edge8" class="edge">
<title>/sim_auv_nav_sensors&#45;&gt;/valeport_sound_velocity/temperature</title>
<path fill="none" stroke="#000000" d="M645.599,-80.4931C750.0893,-70.264 920.6284,-53.2749 1078.4493,-36.1059"/>
<polygon fill="#000000" stroke="#000000" points="1079.2637,-39.5379 1088.8255,-34.9748 1078.505,-32.5792 1079.2637,-39.5379"/>
</g>
<!-- /dynamics/altitude -->
<g id="node10" class="node">
<title>/dynamics/altitude</title>
<polygon fill="#fbd740" stroke="#000000" points="534.5,-180 386.5,-180 386.5,-144 534.5,-144 534.5,-180"/>
<text text-anchor="middle" x="460.5" y="-158.3" font-family="sans-serif" font-size="14.00" fill="#000000">/dynamics/altitude</text>
</g>
<!-- /dynamics/altitude&#45;&gt;/sim_auv_nav_sensors -->
<g id="edge9" class="edge">
<title>/dynamics/altitude&#45;&gt;/sim_auv_nav_sensors</title>
<path fill="none" stroke="#000000" d="M482.4538,-143.8314C493.2513,-134.8955 506.4182,-123.9987 518.0742,-114.3524"/>
<polygon fill="#000000" stroke="#000000" points="520.3822,-116.9855 525.8546,-107.9134 515.9192,-111.5927 520.3822,-116.9855"/>
</g>
<!-- /dynamics/odometry -->
<g id="node11" class="node">
<title>/dynamics/odometry</title>
<polygon fill="#fbd740" stroke="#000000" points="716.5,-180 552.5,-180 552.5,-144 716.5,-144 716.5,-180"/>
<text text-anchor="middle" x="634.5" y="-158.3" font-family="sans-serif" font-size="14.00" fill="#000000">/dynamics/odometry</text>
</g>
<!-- /dynamics/odometry&#45;&gt;/sim_auv_nav_sensors -->
<g id="edge10" class="edge">
<title>/dynamics/odometry&#45;&gt;/sim_auv_nav_sensors</title>
<path fill="none" stroke="#000000" d="M612.5462,-143.8314C601.7487,-134.8955 588.5818,-123.9987 576.9258,-114.3524"/>
<polygon fill="#000000" stroke="#000000" points="579.0808,-111.5927 569.1454,-107.9134 574.6178,-116.9855 579.0808,-111.5927"/>
</g>
</g>
</svg>
