<?xml version="1.0" encoding="UTF-8" standalone="no"?>
<!DOCTYPE svg PUBLIC "-//W3C//DTD SVG 1.1//EN"
 "http://www.w3.org/Graphics/SVG/1.1/DTD/svg11.dtd">
<!-- Generated by graphviz version 2.40.1 (20161225.0304)
 -->
<!-- Title: G Pages: 1 -->
<svg width="2098pt" height="116pt"
 viewBox="0.00 0.00 2097.50 116.00" xmlns="http://www.w3.org/2000/svg" xmlns:xlink="http://www.w3.org/1999/xlink">
<g id="graph0" class="graph" transform="scale(1 1) rotate(0) translate(4 112)">
<title>G</title>
<polygon fill="#ffffff" stroke="transparent" points="-4,4 -4,-112 2093.5,-112 2093.5,4 -4,4"/>
<!-- /sim_internal_sensors -->
<g id="node1" class="node">
<title>/sim_internal_sensors</title>
<ellipse fill="#072c43" stroke="#000000" cx="1113.5" cy="-90" rx="111.5806" ry="18"/>
<text text-anchor="middle" x="1113.5" y="-86.3" font-family="sans-serif" font-size="14.00" fill="#a4c4bf">/sim_internal_sensors</text>
</g>
<!-- /batteries/status -->
<g id="node2" class="node">
<title>/batteries/status</title>
<polygon fill="#fbd740" stroke="#000000" points="133,-36 0,-36 0,0 133,0 133,-36"/>
<text text-anchor="middle" x="66.5" y="-14.3" font-family="sans-serif" font-size="14.00" fill="#000000">/batteries/status</text>
</g>
<!-- /sim_internal_sensors&#45;&gt;/batteries/status -->
<g id="edge1" class="edge">
<title>/sim_internal_sensors&#45;&gt;/batteries/status</title>
<path fill="none" stroke="#000000" d="M1003.6861,-86.3916C789.7788,-78.96 323.1727,-60.6707 143.189,-36.0657"/>
<polygon fill="#000000" stroke="#000000" points="143.4275,-32.5646 133.0351,-34.6257 142.4445,-39.4952 143.4275,-32.5646"/>
</g>
<!-- /batteries_cylinder/humidity -->
<g id="node3" class="node">
<title>/batteries_cylinder/humidity</title>
<polygon fill="#fbd740" stroke="#000000" points="366,-36 151,-36 151,0 366,0 366,-36"/>
<text text-anchor="middle" x="258.5" y="-14.3" font-family="sans-serif" font-size="14.00" fill="#000000">/batteries_cylinder/humidity</text>
</g>
<!-- /sim_internal_sensors&#45;&gt;/batteries_cylinder/humidity -->
<g id="edge2" class="edge">
<title>/sim_internal_sensors&#45;&gt;/batteries_cylinder/humidity</title>
<path fill="none" stroke="#000000" d="M1006.3127,-84.8384C864.5886,-77.4103 606.8949,-61.8174 376.4567,-36.0546"/>
<polygon fill="#000000" stroke="#000000" points="376.527,-32.5405 366.198,-34.8989 375.7433,-39.4965 376.527,-32.5405"/>
</g>
<!-- /batteries_cylinder/pressure -->
<g id="node4" class="node">
<title>/batteries_cylinder/pressure</title>
<polygon fill="#fbd740" stroke="#000000" points="600.5,-36 384.5,-36 384.5,0 600.5,0 600.5,-36"/>
<text text-anchor="middle" x="492.5" y="-14.3" font-family="sans-serif" font-size="14.00" fill="#000000">/batteries_cylinder/pressure</text>
</g>
<!-- /sim_internal_sensors&#45;&gt;/batteries_cylinder/pressure -->
<g id="edge3" class="edge">
<title>/sim_internal_sensors&#45;&gt;/batteries_cylinder/pressure</title>
<path fill="none" stroke="#000000" d="M1016.7237,-80.9623C917.4235,-71.3844 758.2121,-55.1853 610.6778,-36.1229"/>
<polygon fill="#000000" stroke="#000000" points="610.895,-32.6218 600.5274,-34.8044 609.9932,-39.5634 610.895,-32.6218"/>
</g>
<!-- /batteries_cylinder/temperature -->
<g id="node5" class="node">
<title>/batteries_cylinder/temperature</title>
<polygon fill="#fbd740" stroke="#000000" points="862.5,-36 618.5,-36 618.5,0 862.5,0 862.5,-36"/>
<text text-anchor="middle" x="740.5" y="-14.3" font-family="sans-serif" font-size="14.00" fill="#000000">/batteries_cylinder/temperature</text>
</g>
<!-- /sim_internal_sensors&#45;&gt;/batteries_cylinder/temperature -->
<g id="edge4" class="edge">
<title>/sim_internal_sensors&#45;&gt;/batteries_cylinder/temperature</title>
<path fill="none" stroke="#000000" d="M1041.5818,-76.1177C985.4169,-65.2762 906.616,-50.0653 843.7187,-37.9243"/>
<polygon fill="#000000" stroke="#000000" points="844.2487,-34.462 833.7666,-36.0032 842.9219,-41.3351 844.2487,-34.462"/>
</g>
<!-- /batteries_cylinder/water_detected -->
<g id="node6" class="node">
<title>/batteries_cylinder/water_detected</title>
<polygon fill="#fbd740" stroke="#000000" points="1146,-36 881,-36 881,0 1146,0 1146,-36"/>
<text text-anchor="middle" x="1013.5" y="-14.3" font-family="sans-serif" font-size="14.00" fill="#000000">/batteries_cylinder/water_detected</text>
</g>
<!-- /sim_internal_sensors&#45;&gt;/batteries_cylinder/water_detected -->
<g id="edge5" class="edge">
<title>/sim_internal_sensors&#45;&gt;/batteries_cylinder/water_detected</title>
<path fill="none" stroke="#000000" d="M1089.0372,-72.3868C1076.3959,-63.2851 1060.7776,-52.0399 1047.0295,-42.1412"/>
<polygon fill="#000000" stroke="#000000" points="1048.9149,-39.1859 1038.7544,-36.1832 1044.8247,-44.8666 1048.9149,-39.1859"/>
</g>
<!-- /diagnostics -->
<g id="node7" class="node">
<title>/diagnostics</title>
<polygon fill="#fbd740" stroke="#000000" points="1265,-36 1164,-36 1164,0 1265,0 1265,-36"/>
<text text-anchor="middle" x="1214.5" y="-14.3" font-family="sans-serif" font-size="14.00" fill="#000000">/diagnostics</text>
</g>
<!-- /sim_internal_sensors&#45;&gt;/diagnostics -->
<g id="edge6" class="edge">
<title>/sim_internal_sensors&#45;&gt;/diagnostics</title>
<path fill="none" stroke="#000000" d="M1138.2074,-72.3868C1150.9751,-63.2851 1166.7497,-52.0399 1180.6352,-42.1412"/>
<polygon fill="#000000" stroke="#000000" points="1182.8819,-44.8379 1188.993,-36.1832 1178.8186,-39.138 1182.8819,-44.8379"/>
</g>
<!-- /pc_cylinder/humidity -->
<g id="node8" class="node">
<title>/pc_cylinder/humidity</title>
<polygon fill="#fbd740" stroke="#000000" points="1451.5,-36 1283.5,-36 1283.5,0 1451.5,0 1451.5,-36"/>
<text text-anchor="middle" x="1367.5" y="-14.3" font-family="sans-serif" font-size="14.00" fill="#000000">/pc_cylinder/humidity</text>
</g>
<!-- /sim_internal_sensors&#45;&gt;/pc_cylinder/humidity -->
<g id="edge7" class="edge">
<title>/sim_internal_sensors&#45;&gt;/pc_cylinder/humidity</title>
<path fill="none" stroke="#000000" d="M1168.9275,-74.2883C1205.6071,-63.8909 1254.1131,-50.1412 1294.0021,-38.834"/>
<polygon fill="#000000" stroke="#000000" points="1295.0153,-42.1848 1303.6817,-36.0902 1293.1063,-35.4502 1295.0153,-42.1848"/>
</g>
<!-- /pc_cylinder/pressure -->
<g id="node9" class="node">
<title>/pc_cylinder/pressure</title>
<polygon fill="#fbd740" stroke="#000000" points="1638,-36 1469,-36 1469,0 1638,0 1638,-36"/>
<text text-anchor="middle" x="1553.5" y="-14.3" font-family="sans-serif" font-size="14.00" fill="#000000">/pc_cylinder/pressure</text>
</g>
<!-- /sim_internal_sensors&#45;&gt;/pc_cylinder/pressure -->
<g id="edge8" class="edge">
<title>/sim_internal_sensors&#45;&gt;/pc_cylinder/pressure</title>
<path fill="none" stroke="#000000" d="M1196.7248,-77.9272C1264.7006,-67.8633 1363.5263,-52.7712 1458.7794,-36.2724"/>
<polygon fill="#000000" stroke="#000000" points="1459.6252,-39.6779 1468.8773,-34.5156 1458.4253,-32.7815 1459.6252,-39.6779"/>
</g>
<!-- /pc_cylinder/temperature -->
<g id="node10" class="node">
<title>/pc_cylinder/temperature</title>
<polygon fill="#fbd740" stroke="#000000" points="1853,-36 1656,-36 1656,0 1853,0 1853,-36"/>
<text text-anchor="middle" x="1754.5" y="-14.3" font-family="sans-serif" font-size="14.00" fill="#000000">/pc_cylinder/temperature</text>
</g>
<!-- /sim_internal_sensors&#45;&gt;/pc_cylinder/temperature -->
<g id="edge9" class="edge">
<title>/sim_internal_sensors&#45;&gt;/pc_cylinder/temperature</title>
<path fill="none" stroke="#000000" d="M1213.6258,-81.8579C1318.7947,-72.8529 1489.2244,-56.9813 1645.4493,-36.2346"/>
<polygon fill="#000000" stroke="#000000" points="1646.2705,-39.6561 1655.7181,-34.8611 1645.3423,-32.7178 1646.2705,-39.6561"/>
</g>
<!-- /pc_cylinder/water_detected -->
<g id="node11" class="node">
<title>/pc_cylinder/water_detected</title>
<polygon fill="#fbd740" stroke="#000000" points="2089.5,-36 1871.5,-36 1871.5,0 2089.5,0 2089.5,-36"/>
<text text-anchor="middle" x="1980.5" y="-14.3" font-family="sans-serif" font-size="14.00" fill="#000000">/pc_cylinder/water_detected</text>
</g>
<!-- /sim_internal_sensors&#45;&gt;/pc_cylinder/water_detected -->
<g id="edge10" class="edge">
<title>/sim_internal_sensors&#45;&gt;/pc_cylinder/water_detected</title>
<path fill="none" stroke="#000000" d="M1221.0348,-84.9352C1364.664,-77.5658 1627.2307,-61.9838 1861.1863,-36.0994"/>
<polygon fill="#000000" stroke="#000000" points="1861.6988,-39.564 1871.2494,-34.9776 1860.9232,-32.6071 1861.6988,-39.564"/>
</g>
</g>
</svg>
