<?xml version="1.0" encoding="UTF-8" standalone="no"?>
<!DOCTYPE svg PUBLIC "-//W3C//DTD SVG 1.1//EN"
 "http://www.w3.org/Graphics/SVG/1.1/DTD/svg11.dtd">
<!-- Generated by graphviz version 2.40.1 (20161225.0304)
 -->
<!-- Title: G Pages: 1 -->
<svg width="1101pt" height="188pt"
 viewBox="0.00 0.00 1100.50 188.00" xmlns="http://www.w3.org/2000/svg" xmlns:xlink="http://www.w3.org/1999/xlink">
<g id="graph0" class="graph" transform="scale(1 1) rotate(0) translate(4 184)">
<title>G</title>
<polygon fill="#ffffff" stroke="transparent" points="-4,4 -4,-184 1096.5,-184 1096.5,4 -4,4"/>
<!-- /navigator -->
<g id="node1" class="node">
<title>/navigator</title>
<ellipse fill="#072c43" stroke="#000000" cx="497" cy="-90" rx="57.6901" ry="18"/>
<text text-anchor="middle" x="497" y="-86.3" font-family="sans-serif" font-size="14.00" fill="#a4c4bf">/navigator</text>
</g>
<!-- /diagnostics -->
<g id="node2" class="node">
<title>/diagnostics</title>
<polygon fill="#fbd740" stroke="#000000" points="221.5,-36 120.5,-36 120.5,0 221.5,0 221.5,-36"/>
<text text-anchor="middle" x="171" y="-14.3" font-family="sans-serif" font-size="14.00" fill="#000000">/diagnostics</text>
</g>
<!-- /navigator&#45;&gt;/diagnostics -->
<g id="edge1" class="edge">
<title>/navigator&#45;&gt;/diagnostics</title>
<path fill="none" stroke="#000000" d="M446.1919,-81.1105C394.5315,-71.7531 312.0297,-55.935 231.4625,-36"/>
<polygon fill="#000000" stroke="#000000" points="232.1991,-32.5765 221.649,-33.5486 230.5026,-39.3678 232.1991,-32.5765"/>
</g>
<!-- /navigator/gps_ned -->
<g id="node3" class="node">
<title>/navigator/gps_ned</title>
<polygon fill="#fbd740" stroke="#000000" points="394,-36 240,-36 240,0 394,0 394,-36"/>
<text text-anchor="middle" x="317" y="-14.3" font-family="sans-serif" font-size="14.00" fill="#000000">/navigator/gps_ned</text>
</g>
<!-- /navigator&#45;&gt;/navigator/gps_ned -->
<g id="edge2" class="edge">
<title>/navigator&#45;&gt;/navigator/gps_ned</title>
<path fill="none" stroke="#000000" d="M461.4378,-75.7751C435.8478,-65.5391 400.8525,-51.541 371.7178,-39.8871"/>
<polygon fill="#000000" stroke="#000000" points="372.6688,-36.4979 362.0841,-36.0336 370.069,-42.9973 372.6688,-36.4979"/>
</g>
<!-- /navigator/navigation -->
<g id="node4" class="node">
<title>/navigator/navigation</title>
<polygon fill="#fbd740" stroke="#000000" points="581.5,-36 412.5,-36 412.5,0 581.5,0 581.5,-36"/>
<text text-anchor="middle" x="497" y="-14.3" font-family="sans-serif" font-size="14.00" fill="#000000">/navigator/navigation</text>
</g>
<!-- /navigator&#45;&gt;/navigator/navigation -->
<g id="edge3" class="edge">
<title>/navigator&#45;&gt;/navigator/navigation</title>
<path fill="none" stroke="#000000" d="M497,-71.8314C497,-64.131 497,-54.9743 497,-46.4166"/>
<polygon fill="#000000" stroke="#000000" points="500.5001,-46.4132 497,-36.4133 493.5001,-46.4133 500.5001,-46.4132"/>
</g>
<!-- /navigator/odometry -->
<g id="node5" class="node">
<title>/navigator/odometry</title>
<polygon fill="#fbd740" stroke="#000000" points="764,-36 600,-36 600,0 764,0 764,-36"/>
<text text-anchor="middle" x="682" y="-14.3" font-family="sans-serif" font-size="14.00" fill="#000000">/navigator/odometry</text>
</g>
<!-- /navigator&#45;&gt;/navigator/odometry -->
<g id="edge4" class="edge">
<title>/navigator&#45;&gt;/navigator/odometry</title>
<path fill="none" stroke="#000000" d="M533.55,-75.7751C559.9652,-65.4946 596.1312,-51.4192 626.1525,-39.7353"/>
<polygon fill="#000000" stroke="#000000" points="627.6139,-42.9223 635.6636,-36.0336 625.075,-36.3989 627.6139,-42.9223"/>
</g>
<!-- /navigator/usbl_ned -->
<g id="node6" class="node">
<title>/navigator/usbl_ned</title>
<polygon fill="#fbd740" stroke="#000000" points="940,-36 782,-36 782,0 940,0 940,-36"/>
<text text-anchor="middle" x="861" y="-14.3" font-family="sans-serif" font-size="14.00" fill="#000000">/navigator/usbl_ned</text>
</g>
<!-- /navigator&#45;&gt;/navigator/usbl_ned -->
<g id="edge5" class="edge">
<title>/navigator&#45;&gt;/navigator/usbl_ned</title>
<path fill="none" stroke="#000000" d="M546.3837,-80.4699C599.5763,-70.1753 686.9774,-53.1749 772.0311,-36.1863"/>
<polygon fill="#000000" stroke="#000000" points="772.7328,-39.6154 781.8524,-34.2225 771.3602,-32.7512 772.7328,-39.6154"/>
</g>
<!-- /navigator/altitude -->
<g id="node7" class="node">
<title>/navigator/altitude</title>
<polygon fill="#fbd740" stroke="#000000" points="148,-180 0,-180 0,-144 148,-144 148,-180"/>
<text text-anchor="middle" x="74" y="-158.3" font-family="sans-serif" font-size="14.00" fill="#000000">/navigator/altitude</text>
</g>
<!-- /navigator/altitude&#45;&gt;/navigator -->
<g id="edge6" class="edge">
<title>/navigator/altitude&#45;&gt;/navigator</title>
<path fill="none" stroke="#000000" d="M148.1699,-145.6994C151.1496,-145.1129 154.1017,-144.544 157,-144 253.2423,-125.936 365.5579,-108.8756 433.9524,-98.9332"/>
<polygon fill="#000000" stroke="#000000" points="434.7351,-102.3564 444.1301,-97.4591 433.7317,-95.4287 434.7351,-102.3564"/>
</g>
<!-- /navigator/dvl -->
<g id="node8" class="node">
<title>/navigator/dvl</title>
<polygon fill="#fbd740" stroke="#000000" points="281.5,-180 166.5,-180 166.5,-144 281.5,-144 281.5,-180"/>
<text text-anchor="middle" x="224" y="-158.3" font-family="sans-serif" font-size="14.00" fill="#000000">/navigator/dvl</text>
</g>
<!-- /navigator/dvl&#45;&gt;/navigator -->
<g id="edge7" class="edge">
<title>/navigator/dvl&#45;&gt;/navigator</title>
<path fill="none" stroke="#000000" d="M281.5828,-146.2553C284.4281,-145.49 287.2459,-144.7348 290,-144 341.6598,-130.2177 400.6776,-114.8599 442.4419,-104.0568"/>
<polygon fill="#000000" stroke="#000000" points="443.3354,-107.441 452.1412,-101.5496 441.5834,-100.6637 443.3354,-107.441"/>
</g>
<!-- /navigator/gps -->
<g id="node9" class="node">
<title>/navigator/gps</title>
<polygon fill="#fbd740" stroke="#000000" points="418.5,-180 299.5,-180 299.5,-144 418.5,-144 418.5,-180"/>
<text text-anchor="middle" x="359" y="-158.3" font-family="sans-serif" font-size="14.00" fill="#000000">/navigator/gps</text>
</g>
<!-- /navigator/gps&#45;&gt;/navigator -->
<g id="edge8" class="edge">
<title>/navigator/gps&#45;&gt;/navigator</title>
<path fill="none" stroke="#000000" d="M393.8232,-143.8314C413.4879,-133.5715 438.1073,-120.7266 458.3649,-110.1575"/>
<polygon fill="#000000" stroke="#000000" points="460.0851,-113.2077 467.332,-105.479 456.8471,-107.0016 460.0851,-113.2077"/>
</g>
<!-- /navigator/imu -->
<g id="node10" class="node">
<title>/navigator/imu</title>
<polygon fill="#fbd740" stroke="#000000" points="557.5,-180 436.5,-180 436.5,-144 557.5,-144 557.5,-180"/>
<text text-anchor="middle" x="497" y="-158.3" font-family="sans-serif" font-size="14.00" fill="#000000">/navigator/imu</text>
</g>
<!-- /navigator/imu&#45;&gt;/navigator -->
<g id="edge9" class="edge">
<title>/navigator/imu&#45;&gt;/navigator</title>
<path fill="none" stroke="#000000" d="M497,-143.8314C497,-136.131 497,-126.9743 497,-118.4166"/>
<polygon fill="#000000" stroke="#000000" points="500.5001,-118.4132 497,-108.4133 493.5001,-118.4133 500.5001,-118.4132"/>
</g>
<!-- /navigator/pressure -->
<g id="node11" class="node">
<title>/navigator/pressure</title>
<polygon fill="#fbd740" stroke="#000000" points="732.5,-180 575.5,-180 575.5,-144 732.5,-144 732.5,-180"/>
<text text-anchor="middle" x="654" y="-158.3" font-family="sans-serif" font-size="14.00" fill="#000000">/navigator/pressure</text>
</g>
<!-- /navigator/pressure&#45;&gt;/navigator -->
<g id="edge10" class="edge">
<title>/navigator/pressure&#45;&gt;/navigator</title>
<path fill="none" stroke="#000000" d="M614.3823,-143.8314C591.3885,-133.2864 562.4401,-120.0107 539.0449,-109.2817"/>
<polygon fill="#000000" stroke="#000000" points="540.27,-105.9931 529.7212,-105.0059 537.352,-112.3559 540.27,-105.9931"/>
</g>
<!-- /navigator/sound_velocity -->
<g id="node12" class="node">
<title>/navigator/sound_velocity</title>
<polygon fill="#fbd740" stroke="#000000" points="951,-180 751,-180 751,-144 951,-144 951,-180"/>
<text text-anchor="middle" x="851" y="-158.3" font-family="sans-serif" font-size="14.00" fill="#000000">/navigator/sound_velocity</text>
</g>
<!-- /navigator/sound_velocity&#45;&gt;/navigator -->
<g id="edge11" class="edge">
<title>/navigator/sound_velocity&#45;&gt;/navigator</title>
<path fill="none" stroke="#000000" d="M762.1278,-143.9243C697.5373,-130.7872 611.926,-113.3748 555.6959,-101.9381"/>
<polygon fill="#000000" stroke="#000000" points="556.047,-98.438 545.5501,-99.8746 554.6518,-105.2975 556.047,-98.438"/>
</g>
<!-- /navigator/usbl -->
<g id="node13" class="node">
<title>/navigator/usbl</title>
<polygon fill="#fbd740" stroke="#000000" points="1092.5,-180 969.5,-180 969.5,-144 1092.5,-144 1092.5,-180"/>
<text text-anchor="middle" x="1031" y="-158.3" font-family="sans-serif" font-size="14.00" fill="#000000">/navigator/usbl</text>
</g>
<!-- /navigator/usbl&#45;&gt;/navigator -->
<g id="edge12" class="edge">
<title>/navigator/usbl&#45;&gt;/navigator</title>
<path fill="none" stroke="#000000" d="M969.1501,-145.8074C966.0641,-145.1605 963.0014,-144.553 960,-144 819.9516,-118.1973 653.6741,-102.3527 563.3969,-94.9677"/>
<polygon fill="#000000" stroke="#000000" points="563.5533,-91.469 553.3037,-94.1514 562.989,-98.4462 563.5533,-91.469"/>
</g>
</g>
</svg>
