<?xml version="1.0" encoding="UTF-8" standalone="no"?>
<!DOCTYPE svg PUBLIC "-//W3C//DTD SVG 1.1//EN"
 "http://www.w3.org/Graphics/SVG/1.1/DTD/svg11.dtd">
<!-- Generated by graphviz version 2.40.1 (20161225.0304)
 -->
<!-- Title: G Pages: 1 -->
<svg width="1113pt" height="188pt"
 viewBox="0.00 0.00 1112.50 188.00" xmlns="http://www.w3.org/2000/svg" xmlns:xlink="http://www.w3.org/1999/xlink">
<g id="graph0" class="graph" transform="scale(1 1) rotate(0) translate(4 184)">
<title>G</title>
<polygon fill="#ffffff" stroke="transparent" points="-4,4 -4,-184 1108.5,-184 1108.5,4 -4,4"/>
<!-- /navigator_surface -->
<g id="node1" class="node">
<title>/navigator_surface</title>
<ellipse fill="#072c43" stroke="#000000" cx="511.5" cy="-90" rx="97.4827" ry="18"/>
<text text-anchor="middle" x="511.5" y="-86.3" font-family="sans-serif" font-size="14.00" fill="#a4c4bf">/navigator_surface</text>
</g>
<!-- /diagnostics -->
<g id="node2" class="node">
<title>/diagnostics</title>
<polygon fill="#fbd740" stroke="#000000" points="145,-36 44,-36 44,0 145,0 145,-36"/>
<text text-anchor="middle" x="94.5" y="-14.3" font-family="sans-serif" font-size="14.00" fill="#000000">/diagnostics</text>
</g>
<!-- /navigator_surface&#45;&gt;/diagnostics -->
<g id="edge1" class="edge">
<title>/navigator_surface&#45;&gt;/diagnostics</title>
<path fill="none" stroke="#000000" d="M427.3045,-80.8321C356.6939,-72.3323 253.1497,-57.9795 155.0071,-36.1915"/>
<polygon fill="#000000" stroke="#000000" points="155.7465,-32.7705 145.2221,-33.9901 154.21,-39.5998 155.7465,-32.7705"/>
</g>
<!-- /navigator_surface/gps_ned -->
<g id="node3" class="node">
<title>/navigator_surface/gps_ned</title>
<polygon fill="#fbd740" stroke="#000000" points="378,-36 163,-36 163,0 378,0 378,-36"/>
<text text-anchor="middle" x="270.5" y="-14.3" font-family="sans-serif" font-size="14.00" fill="#000000">/navigator_surface/gps_ned</text>
</g>
<!-- /navigator_surface&#45;&gt;/navigator_surface/gps_ned -->
<g id="edge2" class="edge">
<title>/navigator_surface&#45;&gt;/navigator_surface/gps_ned</title>
<path fill="none" stroke="#000000" d="M460.0951,-74.6425C425.3244,-64.2546 378.9608,-50.4032 340.7858,-38.9982"/>
<polygon fill="#000000" stroke="#000000" points="341.3454,-35.5126 330.7619,-36.0036 339.3416,-42.2197 341.3454,-35.5126"/>
</g>
<!-- /navigator_surface/navigation -->
<g id="node4" class="node">
<title>/navigator_surface/navigation</title>
<polygon fill="#fbd740" stroke="#000000" points="626.5,-36 396.5,-36 396.5,0 626.5,0 626.5,-36"/>
<text text-anchor="middle" x="511.5" y="-14.3" font-family="sans-serif" font-size="14.00" fill="#000000">/navigator_surface/navigation</text>
</g>
<!-- /navigator_surface&#45;&gt;/navigator_surface/navigation -->
<g id="edge3" class="edge">
<title>/navigator_surface&#45;&gt;/navigator_surface/navigation</title>
<path fill="none" stroke="#000000" d="M511.5,-71.8314C511.5,-64.131 511.5,-54.9743 511.5,-46.4166"/>
<polygon fill="#000000" stroke="#000000" points="515.0001,-46.4132 511.5,-36.4133 508.0001,-46.4133 515.0001,-46.4132"/>
</g>
<!-- /navigator_surface/odometry -->
<g id="node5" class="node">
<title>/navigator_surface/odometry</title>
<polygon fill="#fbd740" stroke="#000000" points="868.5,-36 644.5,-36 644.5,0 868.5,0 868.5,-36"/>
<text text-anchor="middle" x="756.5" y="-14.3" font-family="sans-serif" font-size="14.00" fill="#000000">/navigator_surface/odometry</text>
</g>
<!-- /navigator_surface&#45;&gt;/navigator_surface/odometry -->
<g id="edge4" class="edge">
<title>/navigator_surface&#45;&gt;/navigator_surface/odometry</title>
<path fill="none" stroke="#000000" d="M563.4582,-74.7307C598.9385,-64.3038 646.3953,-50.3573 685.3759,-38.9018"/>
<polygon fill="#000000" stroke="#000000" points="686.4837,-42.2243 695.0911,-36.0467 684.51,-35.5083 686.4837,-42.2243"/>
</g>
<!-- /navigator_surface/usbl_ned -->
<g id="node6" class="node">
<title>/navigator_surface/usbl_ned</title>
<polygon fill="#fbd740" stroke="#000000" points="1104.5,-36 886.5,-36 886.5,0 1104.5,0 1104.5,-36"/>
<text text-anchor="middle" x="995.5" y="-14.3" font-family="sans-serif" font-size="14.00" fill="#000000">/navigator_surface/usbl_ned</text>
</g>
<!-- /navigator_surface&#45;&gt;/navigator_surface/usbl_ned -->
<g id="edge5" class="edge">
<title>/navigator_surface&#45;&gt;/navigator_surface/usbl_ned</title>
<path fill="none" stroke="#000000" d="M588.2775,-78.7836C660.0308,-68.2757 770.4528,-52.0399 876.0129,-36.2198"/>
<polygon fill="#000000" stroke="#000000" points="876.8415,-39.6348 886.2118,-34.6903 875.8033,-32.7122 876.8415,-39.6348"/>
</g>
<!-- /navigator_surface/altitude -->
<g id="node7" class="node">
<title>/navigator_surface/altitude</title>
<polygon fill="#fbd740" stroke="#000000" points="209,-180 0,-180 0,-144 209,-144 209,-180"/>
<text text-anchor="middle" x="104.5" y="-158.3" font-family="sans-serif" font-size="14.00" fill="#000000">/navigator_surface/altitude</text>
</g>
<!-- /navigator_surface/altitude&#45;&gt;/navigator_surface -->
<g id="edge6" class="edge">
<title>/navigator_surface/altitude&#45;&gt;/navigator_surface</title>
<path fill="none" stroke="#000000" d="M206.4156,-143.9707C275.8136,-131.6939 366.4102,-115.667 430.803,-104.2756"/>
<polygon fill="#000000" stroke="#000000" points="431.668,-107.677 440.9054,-102.4885 430.4486,-100.7841 431.668,-107.677"/>
</g>
<!-- /navigator_surface/dvl -->
<g id="node8" class="node">
<title>/navigator_surface/dvl</title>
<polygon fill="#fbd740" stroke="#000000" points="403.5,-180 227.5,-180 227.5,-144 403.5,-144 403.5,-180"/>
<text text-anchor="middle" x="315.5" y="-158.3" font-family="sans-serif" font-size="14.00" fill="#000000">/navigator_surface/dvl</text>
</g>
<!-- /navigator_surface/dvl&#45;&gt;/navigator_surface -->
<g id="edge7" class="edge">
<title>/navigator_surface/dvl&#45;&gt;/navigator_surface</title>
<path fill="none" stroke="#000000" d="M364.7061,-143.9243C393.1305,-133.4827 428.9075,-120.3401 458.0249,-109.6439"/>
<polygon fill="#000000" stroke="#000000" points="459.4441,-112.8513 467.6239,-106.1178 457.0303,-106.2806 459.4441,-112.8513"/>
</g>
<!-- /navigator_surface/gps -->
<g id="node9" class="node">
<title>/navigator_surface/gps</title>
<polygon fill="#fbd740" stroke="#000000" points="601.5,-180 421.5,-180 421.5,-144 601.5,-144 601.5,-180"/>
<text text-anchor="middle" x="511.5" y="-158.3" font-family="sans-serif" font-size="14.00" fill="#000000">/navigator_surface/gps</text>
</g>
<!-- /navigator_surface/gps&#45;&gt;/navigator_surface -->
<g id="edge8" class="edge">
<title>/navigator_surface/gps&#45;&gt;/navigator_surface</title>
<path fill="none" stroke="#000000" d="M511.5,-143.8314C511.5,-136.131 511.5,-126.9743 511.5,-118.4166"/>
<polygon fill="#000000" stroke="#000000" points="515.0001,-118.4132 511.5,-108.4133 508.0001,-118.4133 515.0001,-118.4132"/>
</g>
<!-- /navigator_surface/imu -->
<g id="node10" class="node">
<title>/navigator_surface/imu</title>
<polygon fill="#fbd740" stroke="#000000" points="801.5,-180 619.5,-180 619.5,-144 801.5,-144 801.5,-180"/>
<text text-anchor="middle" x="710.5" y="-158.3" font-family="sans-serif" font-size="14.00" fill="#000000">/navigator_surface/imu</text>
</g>
<!-- /navigator_surface/imu&#45;&gt;/navigator_surface -->
<g id="edge9" class="edge">
<title>/navigator_surface/imu&#45;&gt;/navigator_surface</title>
<path fill="none" stroke="#000000" d="M660.5408,-143.9243C631.6813,-133.4827 595.3566,-120.3401 565.7936,-109.6439"/>
<polygon fill="#000000" stroke="#000000" points="566.6419,-106.2289 556.0477,-106.1178 564.2603,-112.8113 566.6419,-106.2289"/>
</g>
<!-- /navigator_surface/sound_velocity -->
<g id="node11" class="node">
<title>/navigator_surface/sound_velocity</title>
<polygon fill="#fbd740" stroke="#000000" points="1079.5,-180 819.5,-180 819.5,-144 1079.5,-144 1079.5,-180"/>
<text text-anchor="middle" x="949.5" y="-158.3" font-family="sans-serif" font-size="14.00" fill="#000000">/navigator_surface/sound_velocity</text>
</g>
<!-- /navigator_surface/sound_velocity&#45;&gt;/navigator_surface -->
<g id="edge10" class="edge">
<title>/navigator_surface/sound_velocity&#45;&gt;/navigator_surface</title>
<path fill="none" stroke="#000000" d="M839.8218,-143.9707C763.7438,-131.4647 663.9928,-115.0673 594.4924,-103.6426"/>
<polygon fill="#000000" stroke="#000000" points="594.8995,-100.1626 584.4642,-101.9941 593.764,-107.0699 594.8995,-100.1626"/>
</g>
</g>
</svg>
