<?xml version="1.0" encoding="UTF-8" standalone="no"?>
<!DOCTYPE svg PUBLIC "-//W3C//DTD SVG 1.1//EN"
 "http://www.w3.org/Graphics/SVG/1.1/DTD/svg11.dtd">
<!-- Generated by graphviz version 2.40.1 (20161225.0304)
 -->
<!-- Title: G Pages: 1 -->
<svg width="1032pt" height="188pt"
 viewBox="0.00 0.00 1031.50 188.00" xmlns="http://www.w3.org/2000/svg" xmlns:xlink="http://www.w3.org/1999/xlink">
<g id="graph0" class="graph" transform="scale(1 1) rotate(0) translate(4 184)">
<title>G</title>
<polygon fill="#ffffff" stroke="transparent" points="-4,4 -4,-184 1027.5,-184 1027.5,4 -4,4"/>
<!-- /comms -->
<g id="node1" class="node">
<title>/comms</title>
<ellipse fill="#072c43" stroke="#000000" cx="470" cy="-90" rx="48.1917" ry="18"/>
<text text-anchor="middle" x="470" y="-86.3" font-family="sans-serif" font-size="14.00" fill="#a4c4bf">/comms</text>
</g>
<!-- /comms/custom_output -->
<g id="node2" class="node">
<title>/comms/custom_output</title>
<polygon fill="#fbd740" stroke="#000000" points="301.5,-36 116.5,-36 116.5,0 301.5,0 301.5,-36"/>
<text text-anchor="middle" x="209" y="-14.3" font-family="sans-serif" font-size="14.00" fill="#000000">/comms/custom_output</text>
</g>
<!-- /comms&#45;&gt;/comms/custom_output -->
<g id="edge1" class="edge">
<title>/comms&#45;&gt;/comms/custom_output</title>
<path fill="none" stroke="#000000" d="M431.2075,-79.2986C392.5475,-68.6338 332.1751,-51.9793 284.111,-38.7203"/>
<polygon fill="#000000" stroke="#000000" points="284.9341,-35.3167 274.3634,-36.0313 283.0726,-42.0646 284.9341,-35.3167"/>
</g>
<!-- /comms/to_modem -->
<g id="node3" class="node">
<title>/comms/to_modem</title>
<polygon fill="#fbd740" stroke="#000000" points="474.5,-36 319.5,-36 319.5,0 474.5,0 474.5,-36"/>
<text text-anchor="middle" x="397" y="-14.3" font-family="sans-serif" font-size="14.00" fill="#000000">/comms/to_modem</text>
</g>
<!-- /comms&#45;&gt;/comms/to_modem -->
<g id="edge2" class="edge">
<title>/comms&#45;&gt;/comms/to_modem</title>
<path fill="none" stroke="#000000" d="M452.7,-72.937C443.7629,-64.1223 432.679,-53.1902 422.7575,-43.4047"/>
<polygon fill="#000000" stroke="#000000" points="425.0294,-40.7294 415.4519,-36.1992 420.1139,-45.7132 425.0294,-40.7294"/>
</g>
<!-- /diagnostics -->
<g id="node4" class="node">
<title>/diagnostics</title>
<polygon fill="#fbd740" stroke="#000000" points="593.5,-36 492.5,-36 492.5,0 593.5,0 593.5,-36"/>
<text text-anchor="middle" x="543" y="-14.3" font-family="sans-serif" font-size="14.00" fill="#000000">/diagnostics</text>
</g>
<!-- /comms&#45;&gt;/diagnostics -->
<g id="edge3" class="edge">
<title>/comms&#45;&gt;/diagnostics</title>
<path fill="none" stroke="#000000" d="M487.3,-72.937C496.2371,-64.1223 507.321,-53.1902 517.2425,-43.4047"/>
<polygon fill="#000000" stroke="#000000" points="519.8861,-45.7132 524.5481,-36.1992 514.9706,-40.7294 519.8861,-45.7132"/>
</g>
<!-- /navigator/usbl -->
<g id="node5" class="node">
<title>/navigator/usbl</title>
<polygon fill="#fbd740" stroke="#000000" points="734.5,-36 611.5,-36 611.5,0 734.5,0 734.5,-36"/>
<text text-anchor="middle" x="673" y="-14.3" font-family="sans-serif" font-size="14.00" fill="#000000">/navigator/usbl</text>
</g>
<!-- /comms&#45;&gt;/navigator/usbl -->
<g id="edge4" class="edge">
<title>/comms&#45;&gt;/navigator/usbl</title>
<path fill="none" stroke="#000000" d="M505.3599,-77.4586C534.8486,-66.9995 577.5296,-51.8614 612.4448,-39.4777"/>
<polygon fill="#000000" stroke="#000000" points="613.8145,-42.7056 622.0693,-36.0641 611.4745,-36.1083 613.8145,-42.7056"/>
</g>
<!-- /comms/custom_input -->
<g id="node6" class="node">
<title>/comms/custom_input</title>
<polygon fill="#fbd740" stroke="#000000" points="174,-180 0,-180 0,-144 174,-144 174,-180"/>
<text text-anchor="middle" x="87" y="-158.3" font-family="sans-serif" font-size="14.00" fill="#000000">/comms/custom_input</text>
</g>
<!-- /comms/custom_input&#45;&gt;/comms -->
<g id="edge5" class="edge">
<title>/comms/custom_input&#45;&gt;/comms</title>
<path fill="none" stroke="#000000" d="M174.3879,-145.572C249.0494,-131.5364 354.0459,-111.7982 416.7336,-100.0135"/>
<polygon fill="#000000" stroke="#000000" points="417.616,-103.409 426.7972,-98.1217 416.3227,-96.5295 417.616,-103.409"/>
</g>
<!-- /comms/from_modem -->
<g id="node7" class="node">
<title>/comms/from_modem</title>
<polygon fill="#fbd740" stroke="#000000" points="368,-180 192,-180 192,-144 368,-144 368,-180"/>
<text text-anchor="middle" x="280" y="-158.3" font-family="sans-serif" font-size="14.00" fill="#000000">/comms/from_modem</text>
</g>
<!-- /comms/from_modem&#45;&gt;/comms -->
<g id="edge6" class="edge">
<title>/comms/from_modem&#45;&gt;/comms</title>
<path fill="none" stroke="#000000" d="M327.945,-143.8314C358.2669,-132.341 397.1451,-117.6082 426.5611,-106.4611"/>
<polygon fill="#000000" stroke="#000000" points="428.0373,-109.6446 436.1482,-102.8281 425.5568,-103.0988 428.0373,-109.6446"/>
</g>
<!-- /navigator/navigation -->
<g id="node8" class="node">
<title>/navigator/navigation</title>
<polygon fill="#fbd740" stroke="#000000" points="554.5,-180 385.5,-180 385.5,-144 554.5,-144 554.5,-180"/>
<text text-anchor="middle" x="470" y="-158.3" font-family="sans-serif" font-size="14.00" fill="#000000">/navigator/navigation</text>
</g>
<!-- /navigator/navigation&#45;&gt;/comms -->
<g id="edge7" class="edge">
<title>/navigator/navigation&#45;&gt;/comms</title>
<path fill="none" stroke="#000000" d="M470,-143.8314C470,-136.131 470,-126.9743 470,-118.4166"/>
<polygon fill="#000000" stroke="#000000" points="473.5001,-118.4132 470,-108.4133 466.5001,-118.4133 473.5001,-118.4132"/>
</g>
<!-- /safety_supervisor/status -->
<g id="node9" class="node">
<title>/safety_supervisor/status</title>
<polygon fill="#fbd740" stroke="#000000" points="768,-180 572,-180 572,-144 768,-144 768,-180"/>
<text text-anchor="middle" x="670" y="-158.3" font-family="sans-serif" font-size="14.00" fill="#000000">/safety_supervisor/status</text>
</g>
<!-- /safety_supervisor/status&#45;&gt;/comms -->
<g id="edge8" class="edge">
<title>/safety_supervisor/status&#45;&gt;/comms</title>
<path fill="none" stroke="#000000" d="M619.7897,-143.9243C587.4224,-132.272 545.7117,-117.2562 514.5283,-106.0302"/>
<polygon fill="#000000" stroke="#000000" points="515.3934,-102.6218 504.799,-102.5276 513.0223,-109.208 515.3934,-102.6218"/>
</g>
<!-- /watchdog_timer/elapsed_time -->
<g id="node10" class="node">
<title>/watchdog_timer/elapsed_time</title>
<polygon fill="#fbd740" stroke="#000000" points="1023.5,-180 786.5,-180 786.5,-144 1023.5,-144 1023.5,-180"/>
<text text-anchor="middle" x="905" y="-158.3" font-family="sans-serif" font-size="14.00" fill="#000000">/watchdog_timer/elapsed_time</text>
</g>
<!-- /watchdog_timer/elapsed_time&#45;&gt;/comms -->
<g id="edge9" class="edge">
<title>/watchdog_timer/elapsed_time&#45;&gt;/comms</title>
<path fill="none" stroke="#000000" d="M796.073,-143.9707C709.4204,-129.6282 591.8448,-110.1674 524.1283,-98.9592"/>
<polygon fill="#000000" stroke="#000000" points="524.5421,-95.4801 514.1048,-97.3001 523.399,-102.3862 524.5421,-95.4801"/>
</g>
</g>
</svg>
